<?xml version="1.0" encoding="UTF-8" standalone="no"?>
<!-- Created with Inkscape (http://www.inkscape.org/) -->

<svg
   width="50mm"
   height="105mm"
   viewBox="0 0 50 105"
   version="1.1"
   id="svg29217"
   inkscape:version="1.1 (c68e22c387, 2021-05-23)"
   sodipodi:docname="brass_weight.svg"
   inkscape:export-filename="D:\projects\portfolio\portfolio\src\assets\brassWeight.png"
   inkscape:export-xdpi="96"
   inkscape:export-ydpi="96"
   xmlns:inkscape="http://www.inkscape.org/namespaces/inkscape"
   xmlns:sodipodi="http://sodipodi.sourceforge.net/DTD/sodipodi-0.dtd"
   xmlns:xlink="http://www.w3.org/1999/xlink"
   xmlns="http://www.w3.org/2000/svg"
   xmlns:svg="http://www.w3.org/2000/svg">
  <sodipodi:namedview
     id="namedview29219"
     pagecolor="#ffffff"
     bordercolor="#666666"
     borderopacity="1.0"
     inkscape:pageshadow="2"
     inkscape:pageopacity="0.0"
     inkscape:pagecheckerboard="0"
     inkscape:document-units="mm"
     showgrid="false"
     inkscape:snap-nodes="false"
     inkscape:zoom="0.91717543"
     inkscape:cx="-129.20102"
     inkscape:cy="251.31506"
     inkscape:window-width="1920"
     inkscape:window-height="1001"
     inkscape:window-x="-9"
     inkscape:window-y="-9"
     inkscape:window-maximized="1"
     inkscape:current-layer="g32668" />
  <defs
     id="defs29214">
    <linearGradient
       inkscape:collect="always"
       id="linearGradient32447">
      <stop
         style="stop-color:#ffcc00;stop-opacity:1;"
         offset="0"
         id="stop32443" />
      <stop
         style="stop-color:#ffcc00;stop-opacity:0;"
         offset="1"
         id="stop32445" />
    </linearGradient>
    <linearGradient
       inkscape:collect="always"
       id="linearGradient31101">
      <stop
         style="stop-color:#ffcc00;stop-opacity:1;"
         offset="0"
         id="stop31097" />
      <stop
         style="stop-color:#ffcc00;stop-opacity:0;"
         offset="1"
         id="stop31099" />
    </linearGradient>
    <linearGradient
       inkscape:collect="always"
       xlink:href="#linearGradient31101"
       id="linearGradient31103"
       x1="25.104702"
       y1="71.969208"
       x2="44.807465"
       y2="72.317436"
       gradientUnits="userSpaceOnUse"
       gradientTransform="translate(25.49794,17.542584)" />
    <linearGradient
       inkscape:collect="always"
       xlink:href="#linearGradient32447"
       id="linearGradient32449"
       x1="-24.270174"
       y1="-72.470352"
       x2="-8.9202995"
       y2="-72.199379"
       gradientUnits="userSpaceOnUse"
       gradientTransform="translate(-25.435199,-17.633429)" />
  </defs>
  <g
     inkscape:label="Layer 1"
     inkscape:groupmode="layer"
     id="layer1">
    <g
       id="g32560"
       transform="translate(-4.283654,-5.3035727)">
      <g
         id="g32553">
        <g
           id="g32668"
           transform="translate(-21.214286,-12.239011)">
          <path
             style="fill:#aa8800;stroke:#aa8800;stroke-width:0.292155px;stroke-linecap:butt;stroke-linejoin:miter;stroke-opacity:1"
             d="m 59.894559,30.996834 c 0,0 0,-0.394173 -0.0563,-0.929118 -0.0563,-0.534946 -0.22524,-1.492219 -0.3097,-1.604839 -0.0845,-0.11262 -0.50679,-1.379599 -0.59127,-1.520375 -0.0845,-0.140774 -0.53494,-1.126203 -0.90096,-1.576684 -0.36601,-0.450479 -1.37959,-1.323288 -1.37959,-1.323288 l -0.87281,-0.647566 -1.18251,-0.73203 -0.95727,-0.394173 -0.98543,-0.22524 -1.04173,-0.140775 c 0,0 -0.39418,-0.05631 -0.98544,-0.02817 -0.59125,0.02817 -1.49221,0.140775 -1.49221,0.140775 l -0.84466,0.16893 -0.90096,0.309707 -0.73203,0.309706 -0.67573,0.366016 -0.67571,0.422324 -0.47864,0.450481 c 0,0 -0.45048,0.422329 -0.73203,0.760188 -0.28155,0.33786 -0.67572,0.703876 -0.90095,1.069892 -0.22526,0.366018 -0.39419,0.619412 -0.59127,0.985428 -0.19708,0.366014 -0.50679,0.985429 -0.59126,1.266978 -0.0845,0.28155 -0.19708,0.619411 -0.28155,1.069891 -0.0845,0.450482 -0.16892,1.098048 -0.16892,1.379598 0,0.281551 0.0563,1.351445 0.0563,1.351445 l 0.14078,1.041738 0.25339,1.1262 0.36602,0.929119 0.2534,0.675721 c 0,0 0.3097,0.478638 0.42232,0.732034 0.11263,0.253394 0.78834,0.95727 0.98542,1.210664 0.1971,0.253399 0.84466,0.87281 0.84466,0.87281 l 0.87281,0.45048 1.04173,0.534949 1.04174,0.366014 1.04175,0.225241 0.59124,0.309704 c 0,0 0.90097,0.703877 1.0699,1.04174 0.16893,0.33786 0,21.397849 0,21.397849 h 0.84464 V 41.442355 c 0,0 0,-0.619413 -0.53494,-1.013584 -0.53495,-0.39417 -1.4359,-0.90096 -1.83007,-0.985429 -0.39418,-0.08446 -1.54854,-0.45048 -1.68931,-0.45048 -0.14077,0 -1.77377,-1.041736 -1.77377,-1.041736 l -0.98543,-0.816498 -0.67572,-0.816495 -0.56309,-0.872809 -0.45049,-0.90096 -0.39416,-0.816498 -0.30972,-1.295134 -0.0845,-1.013581 -0.0282,-1.210669 0.14078,-0.84465 0.22524,-0.985429 0.42232,-0.900964 0.64757,-1.069891 0.50679,-0.732033 0.47864,-0.591255 0.5631,-0.478636 0.5631,-0.450483 0.45049,-0.39417 0.90096,-0.5631 1.01359,-0.450482 1.04173,-0.253394 1.06989,-0.168933 0.98543,-0.02817 0.73203,0.05631 1.01358,0.225243 0.95727,0.281551 0.84466,0.309705 0.81649,0.478635 0.64756,0.534948 0.90097,0.732031 0.64757,0.900961 0.61941,0.900962 0.33786,0.87281 0.3097,0.84465 0.22525,1.013583 0.0845,0.816496 0.0845,0.760189 z"
             id="path29401" />
          <path
             id="path29654"
             style="fill:#aa8800;stroke:#aa4400;stroke-width:0.203983"
             d="m 54.673317,62.090026 c -6.87563,0.05551 -13.76118,-0.01315 -20.63337,0.159681 -0.97755,0.0021 -1.95509,0.0045 -2.93263,0.0067 l -0.18346,0.0894 -0.0243,0.01188 c -0.001,0.126352 -8e-4,0.252945 -0.002,0.379304 -0.24737,0.892556 0.0943,2.106676 -0.0548,3.047876 0.006,1.815182 0.002,3.630433 0.004,5.445665 -0.0172,5.420915 -0.0169,10.845146 -0.009,16.270324 -1.8e-4,0.128847 1.6e-4,0.257691 0,0.386538 -0.003,2.560264 -4e-5,5.120444 0.003,7.680669 7.9e-4,0.605472 -1.9e-4,1.210953 5.3e-4,1.816428 -0.001,1.535567 0.006,3.072479 0.002,4.607469 v 15.40061 c 0.10224,0.0714 0.21694,0.12032 0.33539,0.16227 0.12124,0.1723 0.31706,0.26619 0.66042,0.18552 11.07221,0.0633 22.14806,0.0632 33.21968,-0.0832 h 5.826 c 0.46868,-0.67093 0.2785,-1.70235 0.23461,-2.651 0.004,-0.0241 0.004,-0.0504 0.009,-0.0739 6e-5,-0.0493 -4e-5,-0.0985 0,-0.1478 0.003,-0.0205 0.003,-0.0428 0.007,-0.063 2.4e-4,-0.14641 2.6e-4,-0.29284 5.2e-4,-0.43925 0.003,-0.0518 0.005,-0.10427 0.0129,-0.15348 V 97.291491 c 0.002,-3.622082 0.007,-7.243953 0,-10.866003 -2.7e-4,-0.363802 5.3e-4,-0.727599 0,-1.091407 V 62.521008 c -0.0426,-0.02978 -0.0913,-0.04841 -0.1385,-0.06977 -7e-5,-0.0062 7e-5,-0.01241 0,-0.0186 -0.61638,-0.61962 -1.7877,-0.117105 -2.5988,-0.303856 -4.57909,-0.04699 -9.15891,-0.04129 -13.73818,-0.03876 z" />
          <rect
             style="fill:url(#linearGradient31103);stroke:#aa8800;stroke-width:0.270103"
             id="rect30755"
             width="19.984865"
             height="55.68198"
             x="50.794651"
             y="62.217735" />
          <rect
             style="fill:url(#linearGradient32449);stroke:#ffcc00;stroke-width:0.270103"
             id="rect30755-2"
             width="19.984865"
             height="55.68198"
             x="-50.467243"
             y="-118.14668"
             transform="rotate(179.79561)"
             inkscape:transform-center-y="0.61195058" />
        </g>
      </g>
    </g>
  </g>
</svg>
