<?xml version="1.0" encoding="UTF-8" standalone="no"?>
<!-- Created with Inkscape (http://www.inkscape.org/) -->

<svg
   version="1.1"
   id="svg2"
   width="512"
   height="512"
   viewBox="0 0 512 512"
   sodipodi:docname="gear-gold2.svg"
   inkscape:version="1.1 (c68e22c387, 2021-05-23)"
   inkscape:export-filename="D:\projects\portfolio\portfolio\src\assets\g10170.png"
   inkscape:export-xdpi="96"
   inkscape:export-ydpi="96"
   xmlns:inkscape="http://www.inkscape.org/namespaces/inkscape"
   xmlns:sodipodi="http://sodipodi.sourceforge.net/DTD/sodipodi-0.dtd"
   xmlns="http://www.w3.org/2000/svg"
   xmlns:svg="http://www.w3.org/2000/svg">
  <defs
     id="defs6" />
  <sodipodi:namedview
     id="namedview4"
     pagecolor="#ffffff"
     bordercolor="#666666"
     borderopacity="1.0"
     inkscape:pageshadow="2"
     inkscape:pageopacity="0.0"
     inkscape:pagecheckerboard="0"
     showgrid="false"
     showguides="true"
     inkscape:guide-bbox="true"
     inkscape:object-paths="true"
     inkscape:snap-nodes="false"
     inkscape:zoom="0.7109375"
     inkscape:cx="273.58242"
     inkscape:cy="23.208791"
     inkscape:window-width="1920"
     inkscape:window-height="1001"
     inkscape:window-x="-9"
     inkscape:window-y="-9"
     inkscape:window-maximized="1"
     inkscape:current-layer="g10170" />
  <g
     inkscape:groupmode="layer"
     inkscape:label="Image"
     id="g8">
    <g
       id="g10170"
       transform="translate(-0.72800593,-0.0540562)">
      <path
         style="opacity:1;fill:#aa4400;stroke:#aa4400;stroke-width:1.01469px;stroke-linecap:butt;stroke-linejoin:miter;stroke-opacity:1"
         d="m 350.33718,56.677835 c 0,0 18.64671,-26.163659 21.28332,-27.359086 2.63663,-1.195408 21.42841,10.239371 21.42841,10.239371 0,0 1.51351,-0.03431 1.42339,3.374601 -0.0901,3.408912 -11.90477,31.436524 -11.90477,31.436524 0,0 -5.46736,-4.039953 -9.02019,-5.978281 -3.55283,-1.938318 -11.2931,-6.179087 -12.9394,-6.772659 -1.64628,-0.593563 -10.27076,-4.940469 -10.27076,-4.94047 z"
         id="path6335-1-9" />
      <path
         style="opacity:1;fill:#aa4400;stroke:#aa4400;stroke-width:1.01469px;stroke-linecap:butt;stroke-linejoin:miter;stroke-opacity:1"
         d="m 398.54342,86.945717 c 0,0 25.2276,-19.894852 28.09348,-20.304075 2.8659,-0.409202 17.70351,15.83058 17.70351,15.83058 0,0 1.46256,0.390914 0.42139,3.638187 -1.04114,3.247278 -20.23206,26.844781 -20.23206,26.844781 0,0 -4.11723,-5.40941 -6.98508,-8.26513 -2.86785,-2.85572 -9.1108,-9.094423 -10.525,-10.12528 -1.41419,-1.030843 -8.47624,-7.619062 -8.47624,-7.619063 z"
         id="path6335-1-9-8" />
      <path
         style="opacity:1;fill:#aa4400;stroke:#aa4400;stroke-width:1.01469px;stroke-linecap:butt;stroke-linejoin:miter;stroke-opacity:1"
         d="m 464.30766,181.44779 c 0,0 31.7768,-4.74043 34.46755,-3.67244 2.69075,1.06802 7.50491,22.53215 7.50491,22.53215 0,0 1.07535,1.06561 -1.44095,3.36715 -2.51628,2.30154 -30.89208,13.2536 -30.89208,13.2536 0,0 -0.88738,-6.73987 -1.95849,-10.64274 -1.0711,-3.90288 -3.39175,-12.41818 -4.10732,-14.01524 -0.71558,-1.59703 -3.57363,-10.82247 -3.57362,-10.82248 z"
         id="path6335-1-9-8-2" />
      <path
         style="opacity:1;fill:#aa4400;stroke:#aa4400;stroke-width:0.992923px;stroke-linecap:butt;stroke-linejoin:miter;stroke-opacity:1"
         d="m 478.16741,237.15205 c 0,0 30.47007,4.29365 32.65882,6.06945 2.18873,1.77584 0.89693,23.74572 0.89693,23.74572 0,0 0.70459,1.32364 -2.22124,2.83487 -2.92582,1.51124 -31.92427,4.13473 -31.92427,4.13473 0,0 0.97945,-6.72481 1.03442,-10.77415 0.055,-4.04935 0.18994,-12.87969 -0.0424,-14.61391 -0.23236,-1.73419 -0.40224,-11.39671 -0.40223,-11.39671 z"
         id="path6335-1-9-8-2-9" />
      <path
         style="fill:#aa4400;stroke:#aa4400;stroke-width:1.14178px;stroke-linecap:butt;stroke-linejoin:miter;stroke-opacity:1"
         d="m 38.272782,276.44567 c 0,0 -33.6673836,-6.85908 -36.0058893,-9.09154 -2.33848066,-2.2325 0.2953656,-28.20545 0.2953656,-28.20545 0,0 -0.7118423,-1.61022 2.6257662,-3.23215 3.3375985,-1.62196 35.7443975,-3.04939 35.7443975,-3.04939 0,0 -1.45601,7.91621 -1.737712,12.71401 -0.281767,4.7978 -0.912817,15.25939 -0.748733,17.32901 0.164075,2.06958 -0.173184,13.53551 -0.173195,13.53551 z"
         id="path6335-1-9-8-2-9-2" />
      <path
         style="opacity:1;fill:#aa4400;stroke:#aa4400;stroke-width:0.992923px;stroke-linecap:butt;stroke-linejoin:miter;stroke-opacity:1"
         d="m 475.81799,295.43242 c 0,0 28.31922,12.03672 29.97352,14.31868 1.65428,2.282 -5.28204,23.16816 -5.28204,23.16816 0,0 0.33784,1.46094 -2.87951,2.16306 -3.21734,0.70213 -31.90615,-4.2723 -31.90615,-4.2723 0,0 2.68728,-6.24187 3.78885,-10.13888 1.10161,-3.89702 3.51835,-12.39128 3.74297,-14.12651 0.22459,-1.73522 2.56238,-11.1122 2.56239,-11.1122 z"
         id="path6335-1-9-8-2-9-4" />
      <path
         style="opacity:1;fill:#aa4400;stroke:#aa4400;stroke-width:0.992923px;stroke-linecap:butt;stroke-linejoin:miter;stroke-opacity:1"
         d="m 457.25181,350.56655 c 0,0 24.67002,18.3916 25.73782,21.00002 1.06778,2.60845 -10.61047,21.26221 -10.61047,21.26221 0,0 -0.0172,1.49939 -3.30932,1.42085 -3.29213,-0.0785 -29.99117,-11.69551 -29.99117,-11.69551 0,0 4.087,-5.42945 6.0788,-8.95548 1.99184,-3.52603 6.34855,-11.20796 6.9771,-12.84087 0.62853,-1.63291 5.11725,-10.1912 5.11726,-10.1912 z"
         id="path6335-1-9-8-2-9-4-4" />
      <path
         style="opacity:1;fill:#aa4400;stroke:#aa4400;stroke-width:0.992923px;stroke-linecap:butt;stroke-linejoin:miter;stroke-opacity:1"
         d="m 425.73158,399.81657 c 0,0 19.69258,23.64452 20.12168,26.43018 0.42906,2.78569 -15.2827,18.19624 -15.2827,18.19624 0,0 -0.36689,1.45391 -3.54963,0.60869 -3.18276,-0.84519 -26.43041,-18.37632 -26.43041,-18.37632 0,0 5.24199,-4.32481 8.00219,-7.28816 2.76024,-2.96335 8.79053,-9.41537 9.78305,-10.85633 0.99251,-1.44096 7.35583,-8.71428 7.35584,-8.71428 z"
         id="path6335-1-9-8-2-9-4-4-1" />
      <path
         style="opacity:1;fill:#aa4400;stroke:#aa4400;stroke-width:0.992923px;stroke-linecap:butt;stroke-linejoin:miter;stroke-opacity:1"
         d="m 383.50622,438.24468 c 0,0 11.82316,28.40904 11.40964,31.19706 -0.41357,2.78803 -19.97859,12.86546 -19.97859,12.86546 0,0 -0.78027,1.28049 -3.57093,-0.46779 -2.79068,-1.74825 -19.81718,-25.36799 -19.81718,-25.36799 0,0 6.28616,-2.58199 9.79898,-4.59699 3.51286,-2.01499 11.1809,-6.39611 12.55501,-7.47928 1.37411,-1.08318 9.60307,-6.15045 9.60308,-6.15045 z"
         id="path6335-1-9-8-2-9-4-4-1-9" />
      <path
         style="opacity:1;fill:#aa4400;stroke:#aa4400;stroke-width:0.992923px;stroke-linecap:butt;stroke-linejoin:miter;stroke-opacity:1"
         d="m 331.6111,465.22417 c 0,0 3.74814,30.54198 2.60012,33.1161 -1.14807,2.57412 -22.70235,7.01908 -22.70235,7.01908 0,0 -1.09587,1.02351 -3.3136,-1.41082 -2.21776,-2.4343 -12.26546,-29.76263 -12.26546,-29.76263 0,0 6.74893,-0.79646 10.67422,-1.7926 3.92532,-0.99611 12.48903,-3.15382 14.1038,-3.82759 1.61478,-0.67376 10.90327,-3.34152 10.90328,-3.34151 z"
         id="path6335-1-9-8-2-9-4-4-1-9-0" />
      <path
         style="opacity:1;fill:#aa4400;stroke:#aa4400;stroke-width:0.992923px;stroke-linecap:butt;stroke-linejoin:miter;stroke-opacity:1"
         d="m 274.88161,478.20615 c 0,0 -4.42513,30.45126 -6.21036,32.63231 -1.78528,2.18105 -23.74938,0.79441 -23.74938,0.79441 0,0 -1.32668,0.69888 -2.82526,-2.23344 -1.49862,-2.93231 -3.99688,-31.94184 -3.99688,-31.94184 0,0 6.72052,1.00849 10.76959,1.08094 4.04909,0.0725 12.87875,0.24554 14.61394,0.0207 1.73519,-0.22485 11.39835,-0.35303 11.39836,-0.35302 z"
         id="path6335-1-9-8-2-9-4-4-1-9-0-2" />
      <path
         style="opacity:1;fill:#aa4400;stroke:#aa4400;stroke-width:1.01469px;stroke-linecap:butt;stroke-linejoin:miter;stroke-opacity:1"
         d="m 438.06191,130.37576 c 0,0 29.8862,-13.8558 32.74859,-13.62051 2.86241,0.23532 12.39805,19.39998 12.39805,19.39998 0,0 1.28817,0.70637 -0.64357,3.64996 -1.93171,2.94359 -27.10237,21.75722 -27.10237,21.75722 0,0 -2.38608,-6.20077 -4.31065,-9.62817 -1.92456,-3.4274 -6.10773,-10.91008 -7.16539,-12.23132 -1.05765,-1.32122 -5.92466,-9.32715 -5.92466,-9.32716 z"
         id="path6335-1-9-8-8" />
      <path
         style="fill:#aa4400;stroke:#aa4400;stroke-width:1.01469px;stroke-linecap:butt;stroke-linejoin:miter;stroke-opacity:1"
         d="m 181.66725,48.341756 c 0,0 -4.78791,-31.769687 -3.72394,-34.462034 1.06399,-2.692347 22.52092,-7.53857 22.52092,-7.53857 0,0 1.06399,-1.0769385 3.36928,1.4359181 2.30529,2.5128569 13.29975,30.8722389 13.29975,30.8722389 0,0 -6.73853,0.897449 -10.63981,1.974387 -3.90126,1.076939 -12.4131,3.410305 -14.00907,4.128264 -1.59597,0.71796 -10.81713,3.589796 -10.81713,3.589796 z"
         id="path6335" />
      <path
         style="opacity:1;fill:#aa4400;stroke:#aa4400;stroke-width:1.01469px;stroke-linecap:butt;stroke-linejoin:miter;stroke-opacity:1"
         d="m 237.25053,36.188227 c 0,0 3.99245,-31.8794213 5.74562,-34.1831453 1.75319,-2.30371804 23.72081,-1.15955311 23.72081,-1.15955311 0,0 1.31583,-0.74864376 2.85468,2.29450841 1.53884,3.0431523 4.44447,33.320041 4.44447,33.320041 0,0 -6.72983,-0.960502 -10.77698,-0.980043 -4.04713,-0.01954 -12.87281,-0.07787 -14.60356,0.181172 -1.73075,0.259042 -11.38504,0.527021 -11.38504,0.52702 z"
         id="path6335-1" />
      <path
         style="opacity:1;fill:#aa4400;stroke:#aa4400;stroke-width:1.01469px;stroke-linecap:butt;stroke-linejoin:miter;stroke-opacity:1"
         d="m 295.36489,38.407017 c 0,0 11.74524,-29.9046204 14.01325,-31.7037585 2.26802,-1.7991275 23.27188,4.7371905 23.27188,4.7371905 0,0 1.46,-0.400326 2.19926,2.928688 0.73925,3.329011 -3.92584,33.38512 -3.92584,33.38512 0,0 -6.28386,-2.593489 -10.20071,-3.61237 -3.91683,-1.018874 -12.45447,-3.255991 -14.19556,-3.432604 -1.7411,-0.176612 -11.16228,-2.302265 -11.16228,-2.302266 z"
         id="path6335-1-2" />
      <path
         style="opacity:1;fill:#aa4400;stroke:#aa4400;stroke-width:1.00467px;stroke-linecap:butt;stroke-linejoin:miter;stroke-opacity:1"
         d="m 216.5819,475.3226 c 0,0 -12.4025,28.83872 -14.70517,30.50219 -2.30273,1.66345 -23.08956,-5.71976 -23.08956,-5.71976 0,0 -1.46478,0.32639 -2.12448,-2.97775 -0.65976,-3.30411 4.68821,-32.61602 4.68821,-32.61602 0,0 6.20414,2.83561 10.08515,4.01593 3.88101,1.18037 12.34015,3.76913 14.07173,4.02241 1.73157,0.2533 11.07412,2.77301 11.07412,2.77303 z"
         id="path6335-1-9-8-2-9-4-4-1-9-0-3" />
      <path
         style="opacity:1;fill:#aa4400;stroke:#aa4400;stroke-width:0.992923px;stroke-linecap:butt;stroke-linejoin:miter;stroke-opacity:1"
         d="m 161.1188,457.13464 c 0,0 -18.90242,24.28085 -21.53254,25.29399 -2.63017,1.01311 -21.03616,-11.05188 -21.03616,-11.05188 0,0 -1.49872,-0.0485 -1.35148,-3.33824 0.14718,-3.28977 12.31883,-29.74058 12.31883,-29.74058 0,0 5.34296,4.19941 8.82666,6.26437 3.4837,2.065 11.07304,6.58106 12.69248,7.24353 1.61943,0.66249 10.0822,5.32882 10.0822,5.32883 z"
         id="path6335-1-9-8-2-9-4-4-1-9-0-6" />
      <path
         style="fill:#aa4400;stroke:#aa4400;stroke-width:1.02236px;stroke-linecap:butt;stroke-linejoin:miter;stroke-opacity:1"
         d="m 36.060286,211.00534 c 0,0 -30.1879538,-11.7105 -31.9701043,-13.97202 -1.7821341,-2.26157 5.3297206,-23.20688 5.3297206,-23.20688 0,0 -0.3757057,-1.45593 3.0294117,-2.1933 3.405137,-0.7374 33.901606,3.91284 33.901606,3.91284 0,0 -2.777191,6.26639 -3.899782,10.17229 -1.122629,3.90593 -3.586101,12.41975 -3.803846,14.15595 -0.217766,1.73623 -2.587021,11.13111 -2.587032,11.13111 z"
         id="path6335-1-9-8-2-9-4-4-1-9-0-6-9" />
      <path
         style="opacity:1;fill:#aa4400;stroke:#aa4400;stroke-width:0.981348px;stroke-linecap:butt;stroke-linejoin:miter;stroke-opacity:1"
         d="m 113.07882,424.87288 c 0,0 -24.300315,18.61132 -27.135863,18.98576 -2.835583,0.37445 -18.260426,-14.94429 -18.260426,-14.94429 0,0 -1.471414,-0.37272 -0.566867,-3.42146 0.904494,-3.04877 19.047009,-25.16223 19.047009,-25.16223 0,0 4.316761,5.09966 7.286639,7.79431 2.969872,2.6947 9.435788,8.58148 10.885008,9.55556 1.44919,0.9741 8.74449,7.19235 8.74449,7.19236 z"
         id="path6335-1-9-8-2-9-4-4-1-9-0-6-2" />
      <path
         style="opacity:1;fill:#aa4400;stroke:#aa4400;stroke-width:1.0229px;stroke-linecap:butt;stroke-linejoin:miter;stroke-opacity:1"
         d="m 75.720315,383.67355 c 0,0 -30.744916,10.68396 -33.759204,10.18804 -3.014319,-0.49592 -13.875601,-20.02133 -13.875601,-20.02133 0,0 -1.383302,-0.80712 0.512607,-3.4891 1.895865,-2.68205 27.471256,-18.627 27.471256,-18.627 0,0 2.780422,6.25222 4.952913,9.76457 2.172465,3.51238 6.895931,11.17882 8.064761,12.56229 1.168795,1.38346 6.633259,9.62252 6.633256,9.62253 z"
         id="path6335-1-9-8-2-9-4-4-1-9-0-6-2-3" />
      <path
         style="opacity:1;fill:#aa4400;stroke:#aa4400;stroke-width:1.0229px;stroke-linecap:butt;stroke-linejoin:miter;stroke-opacity:1"
         d="m 47.973067,331.72104 c 0,0 -32.731977,2.81408 -35.399986,1.59376 -2.6680369,-1.22033 -6.0626899,-22.81376 -6.0626899,-22.81376 0,0 -1.0212117,-1.12184 1.7065211,-3.25668 2.7277168,-2.13492 32.4303048,-11.31754 32.4303048,-11.31754 0,0 0.429432,6.74329 1.24627,10.68131 0.816802,3.93804 2.582328,12.52906 3.199275,14.15701 0.616917,1.62794 2.8803,10.95589 2.880293,10.9559 z"
         id="path6335-1-9-8-2-9-4-4-1-9-0-6-2-3-5" />
      <path
         style="opacity:1;fill:#aa4400;stroke:#aa4400;stroke-width:1.05638px;stroke-linecap:butt;stroke-linejoin:miter;stroke-opacity:1"
         d="m 57.375394,161.51363 c 0,0 -27.895823,-18.00526 -29.114904,-20.60631 -1.219104,-2.60106 11.810434,-21.57909 11.810434,-21.57909 0,0 0.0097,-1.50749 3.717037,-1.49275 3.707338,0.0147 33.844287,11.17074 33.844287,11.17074 0,0 -4.56696,5.53722 -6.78701,9.12033 -2.22008,3.58311 -7.076247,11.38974 -7.773458,13.04337 -0.697223,1.6536 -5.696374,10.34371 -5.696384,10.3437 z"
         id="path6335-1-9-8-2-9-4-4-1-9-0-6-2-3-5-1-4-9" />
      <path
         style="opacity:1;fill:#aa4400;stroke:#aa4400;stroke-width:1.05638px;stroke-linecap:butt;stroke-linejoin:miter;stroke-opacity:1"
         d="m 89.086775,113.46157 c 0,0 -22.077283,-24.798386 -22.557807,-27.630473 -0.480544,-2.832102 17.142169,-17.643404 17.142169,-17.643404 0,0 0.411755,-1.450199 3.980631,-0.446362 3.568888,1.003798 29.634302,19.799745 29.634302,19.799745 0,0 -5.87934,4.117196 -8.9753,6.97767 -3.09599,2.860467 -9.859846,9.087524 -10.973175,10.495034 -1.113333,1.40748 -8.250808,8.44779 -8.250815,8.44778 z"
         id="path6335-1-9-8-2-9-4-4-1-9-0-6-2-3-5-1-4-9-4" />
      <path
         style="opacity:1;fill:#aa4400;stroke:#aa4400;stroke-width:1.05638px;stroke-linecap:butt;stroke-linejoin:miter;stroke-opacity:1"
         d="m 131.01603,75.446153 c 0,0 -14.64409,-29.797942 -14.35,-32.655412 0.29409,-2.857487 21.23505,-12.418408 21.23505,-12.418408 0,0 0.78446,-1.287336 3.95507,0.634072 3.17063,1.921373 23.26238,27.001541 23.26238,27.001541 0,0 -6.76604,2.395548 -10.51403,4.324229 -3.74802,1.928666 -11.93044,6.120812 -13.37952,7.179455 -1.4491,1.058609 -10.20894,5.934525 -10.20895,5.934513 z"
         id="path6335-1-9-8-2-9-4-4-1-9-0-6-2-3-5-1-4-9-4-6" />
      <path
         style="opacity:1;fill:#aa4400;stroke:#aa4400;stroke-width:1.40659"
         d="m 386.12638,379.0522 c -20.31984,20.33817 -43.75153,38.80074 -71.48352,47.59615 -28.69058,7.11389 -58.62726,10.83909 -87.93866,5.58995 -35.70996,-5.45298 -70.17079,-21.49964 -95.55035,-47.46083 -10.97896,-9.30744 -26.70779,-3.74505 -39.703301,-5.29395 -5.237002,1.24116 -21.252317,-3.93009 -15.280219,5.93956 4.563925,6.77509 8.48311,13.89629 13.953297,19.96154 20.679733,18.65111 41.329353,38.21518 67.252983,49.45973 47.46818,23.31723 103.04784,30.00729 154.30554,16.21664 31.25755,-7.9999 60.28741,-23.51062 85.15337,-43.93682 11.24188,-3.81588 17.94112,-15.1739 25.74279,-23.65019 5.74691,-7.41448 12.11684,-14.6841 16.94642,-22.58662 -17.17375,-1.85041 -35.85258,-1.57999 -53.39835,-1.83516 z"
         id="path9379" />
      <path
         style="fill:#aa4400;stroke:#aa4400;stroke-width:1.40659"
         d="m 373.55695,122.17519 c 21.16295,19.45936 40.5809,42.10563 50.51825,69.44922 8.297,28.37105 13.25988,58.12759 9.23022,87.63137 -3.96811,35.9053 -18.57257,71.00165 -43.45946,97.4355 -8.84436,11.35532 -2.63479,26.84007 -3.64369,39.88861 1.45716,5.18105 -3.0458,21.39696 6.56782,15.02089 6.58009,-4.84084 13.53272,-9.05182 19.36602,-14.76872 17.7779,-21.43505 36.46922,-42.87785 46.62957,-69.24529 21.32963,-48.39389 25.71015,-104.20309 9.80671,-154.84511 -9.28866,-30.89909 -25.98934,-59.26108 -47.42868,-83.259 C 416.86513,98.408612 405.23919,92.185922 396.4468,84.7423 388.80048,79.307661 381.27307,73.244533 373.17716,68.746664 c -1.13697,17.235691 -0.0925,35.887256 0.37979,53.428526 z"
         id="path9379-7" />
      <path
         style="fill:#aa4400;stroke:#aa4400;stroke-width:1.40659"
         d="m 120.57789,129.36296 c 20.43022,-20.22729 43.96203,-38.562068 71.74148,-47.206438 28.72887,-6.95765 58.68538,-10.51988 87.96777,-5.11132 35.67976,5.64723 70.05276,21.88118 95.29067,47.980098 10.92815,9.36705 26.68701,3.89034 39.6739,5.50993 5.24367,-1.21263 21.23062,4.04569 15.31231,-5.85631 -4.52699,-6.79983 -8.40736,-13.94225 -13.84446,-20.03718 -20.57793,-18.763368 -41.12077,-38.439518 -66.98283,-49.824978 -47.34059,-23.5752 -102.88302,-30.56762 -154.21501,-17.05611 -31.30062,7.82969 -60.41446,23.1822 -85.39121,43.47278 -11.262484,3.75464 -18.023424,15.07604 -25.871114,23.509748 -5.78717,7.3831 -12.19657,14.61795 -17.06908,22.49406 17.16343,1.94385 35.843454,1.77504 53.387574,2.12572 z"
         id="path9379-7-1" />
      <path
         style="fill:#aa4400;stroke:#aa4400;stroke-width:1.40659"
         d="m 129.33394,380.55364 c -20.1608,-20.49584 -38.419027,-44.08709 -46.973097,-71.89448 -6.86427,-28.75133 -10.32915,-58.71925 -4.82548,-87.98392 5.76313,-35.66122 22.10867,-69.98129 48.289447,-95.13428 9.40251,-10.89765 3.97703,-26.674226 5.6388,-39.655785 -1.19558,-5.247582 4.11465,-21.217363 -5.80652,-15.331257 -6.81451,4.504874 -13.9695,8.362017 -20.08206,13.779285 -18.830127,20.516857 -38.572917,40.995657 -50.042347,66.820597 -23.72888,47.26374 -30.90173,102.78316 -17.55707,154.15878 7.72795,31.32589 22.98579,60.48946 43.19511,85.53201 3.71803,11.27463 15.0174,18.07232 23.425567,25.94737 7.36426,5.81112 14.57824,12.24399 22.43848,17.14206 1.99961,-17.15701 1.89149,-35.83749 2.29917,-53.38038 z"
         id="path9379-7-1-8" />
    </g>
  </g>
</svg>
