<?xml version="1.0" encoding="UTF-8" standalone="no"?>
<!-- Created with Inkscape (http://www.inkscape.org/) -->

<svg
   version="1.1"
   id="svg2"
   width="512"
   height="512"
   viewBox="0 0 512 512"
   sodipodi:docname="gear-gold.svg"
   inkscape:version="1.1 (c68e22c387, 2021-05-23)"
   inkscape:export-filename="D:\projects\portfolio\portfolio\src\assets\g10170.png"
   inkscape:export-xdpi="96"
   inkscape:export-ydpi="96"
   xmlns:inkscape="http://www.inkscape.org/namespaces/inkscape"
   xmlns:sodipodi="http://sodipodi.sourceforge.net/DTD/sodipodi-0.dtd"
   xmlns="http://www.w3.org/2000/svg"
   xmlns:svg="http://www.w3.org/2000/svg">
  <defs
     id="defs6" />
  <sodipodi:namedview
     id="namedview4"
     pagecolor="#ffffff"
     bordercolor="#666666"
     borderopacity="1.0"
     inkscape:pageshadow="2"
     inkscape:pageopacity="0.0"
     inkscape:pagecheckerboard="0"
     showgrid="false"
     showguides="true"
     inkscape:guide-bbox="true"
     inkscape:object-paths="true"
     inkscape:snap-nodes="false"
     inkscape:zoom="0.7109375"
     inkscape:cx="152.61538"
     inkscape:cy="332.65934"
     inkscape:window-width="1920"
     inkscape:window-height="1001"
     inkscape:window-x="-9"
     inkscape:window-y="-9"
     inkscape:window-maximized="1"
     inkscape:current-layer="g8" />
  <g
     inkscape:groupmode="layer"
     inkscape:label="Image"
     id="g8">
    <g
       id="g10170"
       transform="translate(-0.72800593,-0.0540562)">
      <path
         style="opacity:1;fill:#aa4400;stroke:#aa4400;stroke-width:1.01469px;stroke-linecap:butt;stroke-linejoin:miter;stroke-opacity:1"
         d="m 350.33718,56.677835 c 0,0 18.64671,-26.163659 21.28332,-27.359086 2.63663,-1.195408 21.42841,10.239371 21.42841,10.239371 0,0 1.51351,-0.03431 1.42339,3.374601 -0.0901,3.408912 -11.90477,31.436524 -11.90477,31.436524 0,0 -5.46736,-4.039953 -9.02019,-5.978281 -3.55283,-1.938318 -11.2931,-6.179087 -12.9394,-6.772659 -1.64628,-0.593563 -10.27076,-4.940469 -10.27076,-4.94047 z"
         id="path6335-1-9" />
      <path
         style="opacity:1;fill:#aa4400;stroke:#aa4400;stroke-width:1.01469px;stroke-linecap:butt;stroke-linejoin:miter;stroke-opacity:1"
         d="m 398.54342,86.945717 c 0,0 25.2276,-19.894852 28.09348,-20.304075 2.8659,-0.409202 17.70351,15.83058 17.70351,15.83058 0,0 1.46256,0.390914 0.42139,3.638187 -1.04114,3.247278 -20.23206,26.844781 -20.23206,26.844781 0,0 -4.11723,-5.40941 -6.98508,-8.26513 -2.86785,-2.85572 -9.1108,-9.094423 -10.525,-10.12528 -1.41419,-1.030843 -8.47624,-7.619062 -8.47624,-7.619063 z"
         id="path6335-1-9-8" />
      <path
         style="opacity:1;fill:#aa4400;stroke:#aa4400;stroke-width:1.01469px;stroke-linecap:butt;stroke-linejoin:miter;stroke-opacity:1"
         d="m 464.30766,181.44779 c 0,0 31.7768,-4.74043 34.46755,-3.67244 2.69075,1.06802 7.50491,22.53215 7.50491,22.53215 0,0 1.07535,1.06561 -1.44095,3.36715 -2.51628,2.30154 -30.89208,13.2536 -30.89208,13.2536 0,0 -0.88738,-6.73987 -1.95849,-10.64274 -1.0711,-3.90288 -3.39175,-12.41818 -4.10732,-14.01524 -0.71558,-1.59703 -3.57363,-10.82247 -3.57362,-10.82248 z"
         id="path6335-1-9-8-2" />
      <path
         style="opacity:1;fill:#aa4400;stroke:#aa4400;stroke-width:0.992923px;stroke-linecap:butt;stroke-linejoin:miter;stroke-opacity:1"
         d="m 478.16741,237.15205 c 0,0 30.47007,4.29365 32.65882,6.06945 2.18873,1.77584 0.89693,23.74572 0.89693,23.74572 0,0 0.70459,1.32364 -2.22124,2.83487 -2.92582,1.51124 -31.92427,4.13473 -31.92427,4.13473 0,0 0.97945,-6.72481 1.03442,-10.77415 0.055,-4.04935 0.18994,-12.87969 -0.0424,-14.61391 -0.23236,-1.73419 -0.40224,-11.39671 -0.40223,-11.39671 z"
         id="path6335-1-9-8-2-9" />
      <path
         style="fill:#aa4400;stroke:#aa4400;stroke-width:1.14178px;stroke-linecap:butt;stroke-linejoin:miter;stroke-opacity:1"
         d="m 38.272782,276.44567 c 0,0 -33.6673836,-6.85908 -36.0058893,-9.09154 -2.33848066,-2.2325 0.2953656,-28.20545 0.2953656,-28.20545 0,0 -0.7118423,-1.61022 2.6257662,-3.23215 3.3375985,-1.62196 35.7443975,-3.04939 35.7443975,-3.04939 0,0 -1.45601,7.91621 -1.737712,12.71401 -0.281767,4.7978 -0.912817,15.25939 -0.748733,17.32901 0.164075,2.06958 -0.173184,13.53551 -0.173195,13.53551 z"
         id="path6335-1-9-8-2-9-2" />
      <path
         style="opacity:1;fill:#aa4400;stroke:#aa4400;stroke-width:0.992923px;stroke-linecap:butt;stroke-linejoin:miter;stroke-opacity:1"
         d="m 475.81799,295.43242 c 0,0 28.31922,12.03672 29.97352,14.31868 1.65428,2.282 -5.28204,23.16816 -5.28204,23.16816 0,0 0.33784,1.46094 -2.87951,2.16306 -3.21734,0.70213 -31.90615,-4.2723 -31.90615,-4.2723 0,0 2.68728,-6.24187 3.78885,-10.13888 1.10161,-3.89702 3.51835,-12.39128 3.74297,-14.12651 0.22459,-1.73522 2.56238,-11.1122 2.56239,-11.1122 z"
         id="path6335-1-9-8-2-9-4" />
      <path
         style="opacity:1;fill:#aa4400;stroke:#aa4400;stroke-width:0.992923px;stroke-linecap:butt;stroke-linejoin:miter;stroke-opacity:1"
         d="m 457.25181,350.56655 c 0,0 24.67002,18.3916 25.73782,21.00002 1.06778,2.60845 -10.61047,21.26221 -10.61047,21.26221 0,0 -0.0172,1.49939 -3.30932,1.42085 -3.29213,-0.0785 -29.99117,-11.69551 -29.99117,-11.69551 0,0 4.087,-5.42945 6.0788,-8.95548 1.99184,-3.52603 6.34855,-11.20796 6.9771,-12.84087 0.62853,-1.63291 5.11725,-10.1912 5.11726,-10.1912 z"
         id="path6335-1-9-8-2-9-4-4" />
      <path
         style="opacity:1;fill:#aa4400;stroke:#aa4400;stroke-width:0.992923px;stroke-linecap:butt;stroke-linejoin:miter;stroke-opacity:1"
         d="m 425.73158,399.81657 c 0,0 19.69258,23.64452 20.12168,26.43018 0.42906,2.78569 -15.2827,18.19624 -15.2827,18.19624 0,0 -0.36689,1.45391 -3.54963,0.60869 -3.18276,-0.84519 -26.43041,-18.37632 -26.43041,-18.37632 0,0 5.24199,-4.32481 8.00219,-7.28816 2.76024,-2.96335 8.79053,-9.41537 9.78305,-10.85633 0.99251,-1.44096 7.35583,-8.71428 7.35584,-8.71428 z"
         id="path6335-1-9-8-2-9-4-4-1" />
      <path
         style="opacity:1;fill:#aa4400;stroke:#aa4400;stroke-width:0.992923px;stroke-linecap:butt;stroke-linejoin:miter;stroke-opacity:1"
         d="m 383.50622,438.24468 c 0,0 11.82316,28.40904 11.40964,31.19706 -0.41357,2.78803 -19.97859,12.86546 -19.97859,12.86546 0,0 -0.78027,1.28049 -3.57093,-0.46779 -2.79068,-1.74825 -19.81718,-25.36799 -19.81718,-25.36799 0,0 6.28616,-2.58199 9.79898,-4.59699 3.51286,-2.01499 11.1809,-6.39611 12.55501,-7.47928 1.37411,-1.08318 9.60307,-6.15045 9.60308,-6.15045 z"
         id="path6335-1-9-8-2-9-4-4-1-9" />
      <path
         style="opacity:1;fill:#aa4400;stroke:#aa4400;stroke-width:0.992923px;stroke-linecap:butt;stroke-linejoin:miter;stroke-opacity:1"
         d="m 331.6111,465.22417 c 0,0 3.74814,30.54198 2.60012,33.1161 -1.14807,2.57412 -22.70235,7.01908 -22.70235,7.01908 0,0 -1.09587,1.02351 -3.3136,-1.41082 -2.21776,-2.4343 -12.26546,-29.76263 -12.26546,-29.76263 0,0 6.74893,-0.79646 10.67422,-1.7926 3.92532,-0.99611 12.48903,-3.15382 14.1038,-3.82759 1.61478,-0.67376 10.90327,-3.34152 10.90328,-3.34151 z"
         id="path6335-1-9-8-2-9-4-4-1-9-0" />
      <path
         style="opacity:1;fill:#aa4400;stroke:#aa4400;stroke-width:0.992923px;stroke-linecap:butt;stroke-linejoin:miter;stroke-opacity:1"
         d="m 274.88161,478.20615 c 0,0 -4.42513,30.45126 -6.21036,32.63231 -1.78528,2.18105 -23.74938,0.79441 -23.74938,0.79441 0,0 -1.32668,0.69888 -2.82526,-2.23344 -1.49862,-2.93231 -3.99688,-31.94184 -3.99688,-31.94184 0,0 6.72052,1.00849 10.76959,1.08094 4.04909,0.0725 12.87875,0.24554 14.61394,0.0207 1.73519,-0.22485 11.39835,-0.35303 11.39836,-0.35302 z"
         id="path6335-1-9-8-2-9-4-4-1-9-0-2" />
      <path
         style="opacity:1;fill:#aa4400;stroke:#aa4400;stroke-width:1.01469px;stroke-linecap:butt;stroke-linejoin:miter;stroke-opacity:1"
         d="m 438.06191,130.37576 c 0,0 29.8862,-13.8558 32.74859,-13.62051 2.86241,0.23532 12.39805,19.39998 12.39805,19.39998 0,0 1.28817,0.70637 -0.64357,3.64996 -1.93171,2.94359 -27.10237,21.75722 -27.10237,21.75722 0,0 -2.38608,-6.20077 -4.31065,-9.62817 -1.92456,-3.4274 -6.10773,-10.91008 -7.16539,-12.23132 -1.05765,-1.32122 -5.92466,-9.32715 -5.92466,-9.32716 z"
         id="path6335-1-9-8-8" />
      <path
         id="path889"
         style="opacity:0.709343;fill:#aa4400;stroke:#aa4400;stroke-width:0.572235"
         d="M 256.60938,113.29297 A 142.44336,141.77339 0 0 0 114.16602,255.06641 142.44336,141.77339 0 0 0 256.60938,396.83984 142.44336,141.77339 0 0 0 399.05273,255.06641 142.44336,141.77339 0 0 0 256.60938,113.29297 Z m -1.24219,80.49609 a 62.78503,63.224339 0 0 1 62.78515,63.22461 62.78503,63.224339 0 0 1 -62.78515,63.22461 62.78503,63.224339 0 0 1 -62.78516,-63.22461 62.78503,63.224339 0 0 1 62.78516,-63.22461 z" />
      <path
         style="fill:#803300;stroke:#803300;stroke-width:1px;stroke-linecap:butt;stroke-linejoin:miter;stroke-opacity:1"
         d="m 153.66751,156.65135 -18.64897,-32.57354 c 0,0 14.74083,-14.33609 32.39952,-24.308203 17.65868,-9.972116 34.48812,-14.232998 34.48812,-14.232998 l 18.15167,32.573531 z"
         id="path5595"
         sodipodi:nodetypes="cczccc" />
      <path
         style="fill:#803300;stroke:#803300;stroke-width:1px;stroke-linecap:butt;stroke-linejoin:miter;stroke-opacity:1"
         d="m 357.0496,354.35806 19.78367,31.89712 c 0,0 -14.22723,14.84593 -31.52406,25.43327 -17.29684,10.58733 -33.96591,15.43779 -33.96591,15.43779 l -19.28668,-31.91461 z"
         id="path5595-4"
         sodipodi:nodetypes="cczccc" />
      <path
         style="fill:#803300;stroke:#803300;stroke-width:1.05573px;stroke-linecap:butt;stroke-linejoin:miter;stroke-opacity:1"
         d="m 121.93665,294.4631 -41.864488,0.0817 c 0,0 -5.756111,-19.88991 -5.671976,-40.15492 0.08413,-20.26499 5.245581,-36.9852 5.245581,-36.9852 l 41.589943,0.3501 z"
         id="path5595-6"
         sodipodi:nodetypes="cczccc" />
      <path
         style="fill:#803300;stroke:#803300;stroke-width:1.05573px;stroke-linecap:butt;stroke-linejoin:miter;stroke-opacity:1"
         d="m 391.78083,216.73433 41.84364,1.32358 c 0,0 5.08524,20.07192 4.32093,40.32268 -0.76427,20.25075 -6.48408,36.78829 -6.48408,36.78829 l -41.55476,-1.74593 z"
         id="path5595-6-2"
         sodipodi:nodetypes="cczccc" />
      <path
         style="fill:#803300;stroke:#803300;stroke-width:0.979312px;stroke-linecap:butt;stroke-linejoin:miter;stroke-opacity:1"
         d="m 292.3836,117.91882 18.90653,-31.839572 c 0,0 18.98312,5.949836 35.62811,16.530162 16.645,10.58029 28.0706,23.17741 28.0706,23.17741 l -19.13756,31.40696 z"
         id="path5595-2"
         sodipodi:nodetypes="cczccc" />
      <path
         style="fill:#803300;stroke:#803300;stroke-width:1.00354px;stroke-linecap:butt;stroke-linejoin:miter;stroke-opacity:1"
         d="m 222.06915,394.001 -19.14736,32.186 c 0,0 -20.07062,-5.57861 -37.7888,-15.83011 -17.7182,-10.25148 -29.99944,-22.6196 -29.99944,-22.6196 l 19.39967,-31.75815 z"
         id="path5595-2-8"
         sodipodi:nodetypes="cczccc" />
      <path
         style="fill:#aa4400;stroke:#aa4400;stroke-width:1.01469px;stroke-linecap:butt;stroke-linejoin:miter;stroke-opacity:1"
         d="m 181.66725,48.341756 c 0,0 -4.78791,-31.769687 -3.72394,-34.462034 1.06399,-2.692347 22.52092,-7.53857 22.52092,-7.53857 0,0 1.06399,-1.0769385 3.36928,1.4359181 2.30529,2.5128569 13.29975,30.8722389 13.29975,30.8722389 0,0 -6.73853,0.897449 -10.63981,1.974387 -3.90126,1.076939 -12.4131,3.410305 -14.00907,4.128264 -1.59597,0.71796 -10.81713,3.589796 -10.81713,3.589796 z"
         id="path6335" />
      <path
         style="opacity:1;fill:#aa4400;stroke:#aa4400;stroke-width:1.01469px;stroke-linecap:butt;stroke-linejoin:miter;stroke-opacity:1"
         d="m 237.25053,36.188227 c 0,0 3.99245,-31.8794213 5.74562,-34.1831453 1.75319,-2.30371804 23.72081,-1.15955311 23.72081,-1.15955311 0,0 1.31583,-0.74864376 2.85468,2.29450841 1.53884,3.0431523 4.44447,33.320041 4.44447,33.320041 0,0 -6.72983,-0.960502 -10.77698,-0.980043 -4.04713,-0.01954 -12.87281,-0.07787 -14.60356,0.181172 -1.73075,0.259042 -11.38504,0.527021 -11.38504,0.52702 z"
         id="path6335-1" />
      <path
         style="opacity:1;fill:#aa4400;stroke:#aa4400;stroke-width:1.01469px;stroke-linecap:butt;stroke-linejoin:miter;stroke-opacity:1"
         d="m 295.36489,38.407017 c 0,0 11.74524,-29.9046204 14.01325,-31.7037585 2.26802,-1.7991275 23.27188,4.7371905 23.27188,4.7371905 0,0 1.46,-0.400326 2.19926,2.928688 0.73925,3.329011 -3.92584,33.38512 -3.92584,33.38512 0,0 -6.28386,-2.593489 -10.20071,-3.61237 -3.91683,-1.018874 -12.45447,-3.255991 -14.19556,-3.432604 -1.7411,-0.176612 -11.16228,-2.302265 -11.16228,-2.302266 z"
         id="path6335-1-2" />
      <path
         style="opacity:1;fill:#aa4400;stroke:#aa4400;stroke-width:1.00467px;stroke-linecap:butt;stroke-linejoin:miter;stroke-opacity:1"
         d="m 216.5819,475.3226 c 0,0 -12.4025,28.83872 -14.70517,30.50219 -2.30273,1.66345 -23.08956,-5.71976 -23.08956,-5.71976 0,0 -1.46478,0.32639 -2.12448,-2.97775 -0.65976,-3.30411 4.68821,-32.61602 4.68821,-32.61602 0,0 6.20414,2.83561 10.08515,4.01593 3.88101,1.18037 12.34015,3.76913 14.07173,4.02241 1.73157,0.2533 11.07412,2.77301 11.07412,2.77303 z"
         id="path6335-1-9-8-2-9-4-4-1-9-0-3" />
      <path
         style="opacity:1;fill:#aa4400;stroke:#aa4400;stroke-width:0.992923px;stroke-linecap:butt;stroke-linejoin:miter;stroke-opacity:1"
         d="m 161.1188,457.13464 c 0,0 -18.90242,24.28085 -21.53254,25.29399 -2.63017,1.01311 -21.03616,-11.05188 -21.03616,-11.05188 0,0 -1.49872,-0.0485 -1.35148,-3.33824 0.14718,-3.28977 12.31883,-29.74058 12.31883,-29.74058 0,0 5.34296,4.19941 8.82666,6.26437 3.4837,2.065 11.07304,6.58106 12.69248,7.24353 1.61943,0.66249 10.0822,5.32882 10.0822,5.32883 z"
         id="path6335-1-9-8-2-9-4-4-1-9-0-6" />
      <path
         style="opacity:1;fill:#aa4400;stroke:#aa4400;stroke-width:0.981348px;stroke-linecap:butt;stroke-linejoin:miter;stroke-opacity:1"
         d="m 113.07882,424.87288 c 0,0 -24.300315,18.61132 -27.135863,18.98576 -2.835583,0.37445 -18.260426,-14.94429 -18.260426,-14.94429 0,0 -1.471414,-0.37272 -0.566867,-3.42146 0.904494,-3.04877 19.047009,-25.16223 19.047009,-25.16223 0,0 4.316761,5.09966 7.286639,7.79431 2.969872,2.6947 9.435788,8.58148 10.885008,9.55556 1.44919,0.9741 8.74449,7.19235 8.74449,7.19236 z"
         id="path6335-1-9-8-2-9-4-4-1-9-0-6-2" />
      <path
         style="opacity:1;fill:#aa4400;stroke:#aa4400;stroke-width:1.0229px;stroke-linecap:butt;stroke-linejoin:miter;stroke-opacity:1"
         d="m 75.720315,383.67355 c 0,0 -30.744916,10.68396 -33.759204,10.18804 -3.014319,-0.49592 -13.875601,-20.02133 -13.875601,-20.02133 0,0 -1.383302,-0.80712 0.512607,-3.4891 1.895865,-2.68205 27.471256,-18.627 27.471256,-18.627 0,0 2.780422,6.25222 4.952913,9.76457 2.172465,3.51238 6.895931,11.17882 8.064761,12.56229 1.168795,1.38346 6.633259,9.62252 6.633256,9.62253 z"
         id="path6335-1-9-8-2-9-4-4-1-9-0-6-2-3" />
      <path
         style="opacity:1;fill:#aa4400;stroke:#aa4400;stroke-width:1.0229px;stroke-linecap:butt;stroke-linejoin:miter;stroke-opacity:1"
         d="m 47.973067,331.72104 c 0,0 -32.731977,2.81408 -35.399986,1.59376 -2.6680369,-1.22033 -6.0626899,-22.81376 -6.0626899,-22.81376 0,0 -1.0212117,-1.12184 1.7065211,-3.25668 2.7277168,-2.13492 32.4303048,-11.31754 32.4303048,-11.31754 0,0 0.429432,6.74329 1.24627,10.68131 0.816802,3.93804 2.582328,12.52906 3.199275,14.15701 0.616917,1.62794 2.8803,10.95589 2.880293,10.9559 z"
         id="path6335-1-9-8-2-9-4-4-1-9-0-6-2-3-5" />
      <path
         style="opacity:1;fill:#aa4400;stroke:#aa4400;stroke-width:1.05638px;stroke-linecap:butt;stroke-linejoin:miter;stroke-opacity:1"
         d="m 57.375394,161.51363 c 0,0 -27.895823,-18.00526 -29.114904,-20.60631 -1.219104,-2.60106 11.810434,-21.57909 11.810434,-21.57909 0,0 0.0097,-1.50749 3.717037,-1.49275 3.707338,0.0147 33.844287,11.17074 33.844287,11.17074 0,0 -4.56696,5.53722 -6.78701,9.12033 -2.22008,3.58311 -7.076247,11.38974 -7.773458,13.04337 -0.697223,1.6536 -5.696374,10.34371 -5.696384,10.3437 z"
         id="path6335-1-9-8-2-9-4-4-1-9-0-6-2-3-5-1-4-9" />
      <path
         style="opacity:1;fill:#aa4400;stroke:#aa4400;stroke-width:1.05638px;stroke-linecap:butt;stroke-linejoin:miter;stroke-opacity:1"
         d="m 89.086775,113.46157 c 0,0 -22.077283,-24.798386 -22.557807,-27.630473 -0.480544,-2.832102 17.142169,-17.643404 17.142169,-17.643404 0,0 0.411755,-1.450199 3.980631,-0.446362 3.568888,1.003798 29.634302,19.799745 29.634302,19.799745 0,0 -5.87934,4.117196 -8.9753,6.97767 -3.09599,2.860467 -9.859846,9.087524 -10.973175,10.495034 -1.113333,1.40748 -8.250808,8.44779 -8.250815,8.44778 z"
         id="path6335-1-9-8-2-9-4-4-1-9-0-6-2-3-5-1-4-9-4" />
      <path
         style="opacity:1;fill:#aa4400;stroke:#aa4400;stroke-width:1.05638px;stroke-linecap:butt;stroke-linejoin:miter;stroke-opacity:1"
         d="m 131.01603,75.446153 c 0,0 -14.64409,-29.797942 -14.35,-32.655412 0.29409,-2.857487 21.23505,-12.418408 21.23505,-12.418408 0,0 0.78446,-1.287336 3.95507,0.634072 3.17063,1.921373 23.26238,27.001541 23.26238,27.001541 0,0 -6.76604,2.395548 -10.51403,4.324229 -3.74802,1.928666 -11.93044,6.120812 -13.37952,7.179455 -1.4491,1.058609 -10.20894,5.934525 -10.20895,5.934513 z"
         id="path6335-1-9-8-2-9-4-4-1-9-0-6-2-3-5-1-4-9-4-6" />
      <path
         id="path8751"
         style="opacity:1;fill:#aa4400;stroke:#aa4400;stroke-width:0.351648"
         d="m 260.72266,35.101562 c -13.18308,0.421932 -26.48724,-0.06658 -39.50782,2.416016 -5.85657,0.600933 -11.44755,2.495869 -17.26953,3.31836 -1.53123,0.176729 -2.99334,1.179029 -4.61328,1.396484 -4.74426,0.918924 -9.15028,3.245584 -13.85937,4.496094 -7.38577,2.100329 -14.53264,5.20875 -21.54883,8.363281 -1.0417,0.792761 -0.0575,1.995018 0.49609,2.744141 -11.4579,4.14094 -21.82695,10.609649 -32.42383,16.498046 -1.77537,0.705846 -3.63193,1.184332 -5.13281,2.5 -3.86181,2.744415 -7.74602,5.598493 -11.1875,8.806641 0.67265,1.897997 0.96446,2.550379 -1.54101,3.794922 -9.14427,6.785122 -16.765553,15.309093 -24.933598,23.169923 -2.39756,0.67316 -3.751673,3.09759 -5.3125,4.91992 -2.145466,3.08799 -5.003565,5.79356 -6.613281,9.20117 -0.08871,0.20865 -0.01595,0.38208 0.0293,0.56055 -0.216477,-0.0591 -0.427452,-0.10659 -0.615235,-0.13281 -10.50465,-3.39949 -20.773154,-7.86552 -31.585937,-10.32813 -0.812391,-0.13737 -1.635512,-0.23694 -2.460938,-0.21484 -3.258021,-0.0461 -4.490663,3.65165 -6.21289,5.77734 -3.426722,5.58827 -7.403969,11.03808 -9.431641,17.32617 -0.169338,2.82214 3.005122,4.3088 4.783203,5.95899 7.949219,5.79438 16.141994,11.26081 24.40625,16.59179 -0.232581,0.13117 -0.429262,0.32894 -0.541016,0.67969 -2.61478,4.62335 -4.173924,9.76643 -6.505859,14.51563 -1.510966,-0.18423 -1.88044,1.49223 -1.902344,2.57422 -5.344942,0.42398 -10.777028,-0.30886 -16.072265,-0.68555 -3.587656,-0.61282 -7.193977,-1.00203 -10.845704,-1.07617 -1.724575,0.15499 -3.099947,-1.50656 -4.859374,-0.66211 -2.848509,0.83754 -5.135825,3.40358 -5.220704,6.40429 -1.2714469,1.30906 -0.4895877,3.39114 -1.6484371,4.76758 -0.2972815,1.38533 -0.2653325,2.70153 -0.9707031,3.94336 -0.3588745,2.24706 -1.3792478,4.3225 -1.0566407,6.67188 -0.3033372,2.8838 2.5963903,4.6315 4.8417969,5.52344 0.860601,0.66354 2.025551,0.59911 2.851562,1.39843 1.27581,-0.13532 1.613184,1.39475 2.914063,1.27149 0.957852,0.41819 1.82609,1.14634 2.951172,1.20508 0.940267,1.06138 2.522252,0.69482 3.441406,1.79492 2.638986,0.68627 4.966361,2.41608 7.527344,3.1875 0.747975,0.98387 2.179801,0.47475 2.808594,1.52929 1.061205,0.31837 1.905556,0.57663 2.808593,1.27539 1.171712,0.81889 0.363649,2.82209 0.470704,3.99219 -0.419827,4.63027 -1.803178,9.21972 -1.689454,13.8711 0.433994,1.47789 2.224882,0.55288 3.074219,0.51562 -2.882341,12.37763 -2.514228,25.18173 -3.630859,37.76367 -1.29794,1.87734 0.124897,4.30018 0.04883,6.36524 0.303963,3.36377 0.526608,6.77387 1.386719,10.05859 0.177735,1.79477 -0.145812,3.80715 0.779297,5.38281 -0.382717,1.51374 1.033314,2.96562 2.509765,2.07813 1.316039,-0.58618 0.498904,2.01944 0.910156,2.69531 1.06464,9.42078 3.297726,18.76282 5.816407,27.80859 0.633115,2.24976 0.961811,4.57978 1.171875,6.86329 0.613714,0.64845 1.01732,1.27746 0.988281,2.22851 0.522546,1.01034 1.102202,1.86982 1.263672,3.03516 0.867365,1.05082 0.556289,2.59023 1.570312,3.49804 0.289548,1.1952 1.07117,2.01355 1.269532,3.23047 0.937252,0.91294 0.686931,2.37919 1.625,3.3125 0.08057,1.19914 0.04101,2.88269 1.511718,3.16211 4.741862,9.32227 10.256531,18.25484 16.455078,26.68555 2.264032,0.98321 5.036407,0.13567 7.494141,0.41797 h 44.25781 c 2.50948,-1.1098 -1.0646,-3.28507 -1.84375,-4.54492 -19.19734,-20.98044 -33.156882,-46.68148 -40.322263,-74.17383 -5.002247,-19.65785 -8.814195,-40.18794 -6.236328,-60.47266 1.094235,-9.23211 2.882959,-18.40462 5.732422,-27.2539 7.200436,-28.2406 21.144629,-54.76358 41.107419,-76.09961 3.77126,-4.22714 7.81709,-8.1672 11.97461,-11.98438 0.29805,1.78578 1.95808,3.31757 2.60156,5.02344 5.2514,9.2056 10.35344,18.52116 15.81641,27.5918 1.60533,1.08699 3.23046,-1.08195 4.72851,-1.54883 21.03277,-12.0799 41.98902,-24.30264 62.94531,-36.50977 1.61795,-0.77409 0.8009,-2.59679 -0.0801,-3.61719 -5.73031,-10.11292 -11.32638,-20.299668 -17.0293,-30.42773 -0.15574,-0.09124 -0.28382,-0.242622 -0.42774,-0.359375 0.749,-0.457529 1.50256,-0.878003 2.46875,-0.773437 1.55158,-0.660005 3.12928,-0.857866 4.71289,-1.240235 1.33861,-0.797573 3.16026,-0.53058 4.54102,-1.361328 1.58026,-0.01148 3.16765,-0.190249 4.50391,-1.037109 1.84401,-0.07295 3.69949,-0.22766 5.36133,-1.048828 2.18969,-0.04 4.34168,-0.339489 6.40624,-1.042969 2.43674,-0.195362 4.95448,0.0049 7.26172,-0.855469 5.65072,-0.457094 11.4166,-0.535353 17.02344,-0.916016 0.56744,1.337611 2.16577,0.935023 2.77734,0.0625 5.46831,0.779998 11.13835,0.106491 16.53711,1.13086 2.76856,0.887634 5.85519,-0.01446 8.54688,1.265625 1.96441,0.47885 4.19448,-0.209761 5.91016,1.052734 1.67797,0.485176 3.62411,-0.184775 5.03125,1.044922 1.63987,0.405145 3.37795,0.07912 4.88281,0.953125 1.92195,0.1925 3.5594,1.163103 5.49609,1.253906 1.759,1.044433 4.28047,0.662686 5.48438,2.521485 -1.42606,1.262014 -2.01099,3.500861 -3.20118,5.019531 -5.14749,8.935628 -10.80295,17.619318 -15.4082,26.845708 0.005,0.0593 0.0552,0.0901 0.0645,0.14648 -0.22669,-0.14176 -0.45498,-0.28206 -0.68165,-0.42383 -1.75965,-0.68715 -3.70709,-0.23193 -5.41992,-1.03125 -1.60523,-0.14444 -3.26636,-0.004 -4.67578,-0.87695 -2.00204,-0.52395 -4.23303,-0.0517 -6.0293,-1.13867 -3.18259,-0.49274 -6.51453,0.15116 -9.63867,-0.49805 -2.24915,-1.40827 -5.18353,-0.46086 -7.68359,-0.76367 -0.23878,0.10073 -0.47801,0.20199 -0.7168,0.30273 -0.66643,3.7545 -0.091,7.75239 -0.2832,11.59961 v 67.16406 c 0.77814,1.93809 3.5485,0.60795 5.17773,1 1.732,0.015 3.56875,-0.1827 5.02539,0.85547 1.46506,0.37059 3.13542,-0.11755 4.334,0.98242 1.19259,0.46406 2.63094,-0.10156 3.47265,1.02735 1.12957,0.41393 2.30774,0.18592 3.28125,0.94726 1.42401,0.11662 2.84401,0.92284 4.11329,1.27735 0.61774,0.93135 1.8859,0.63012 2.38085,1.64648 0.86946,0.32909 1.61266,0.26875 2.16407,1.09375 1.33183,0.15322 2.05241,1.29256 3.34764,1.7207 1.55821,1.20955 3.60598,1.73772 4.79494,3.29493 0.97187,0.64484 1.64062,1.98208 2.93164,2.30859 1.45004,0.89441 2.85832,4.06531 4.5625,2.03516 17.3994,-17.46281 34.94204,-34.78502 52.19921,-52.38672 0.083,-0.22418 0.11487,-0.42634 0.10938,-0.61328 0.36568,0.21961 0.72593,0.44865 1.09179,0.66797 2.14409,1.11068 2.6473,-2.07936 3.59179,-3.30079 5.40558,-9.53938 11.58554,-18.62631 16.78711,-28.27734 0.44031,-0.83799 0.32307,-1.5351 -0.0605,-2.15039 0.6712,-0.10648 1.34998,-0.49192 1.92578,0.23437 1.45488,1.22147 3.10494,2.52397 4.03906,4.13868 -0.41994,1.20121 0.93364,1.61119 1.76758,1.59961 3.73601,3.37113 7.26325,7.06564 10.24023,11.10351 2.86277,2.9543 5.12791,6.51951 7.55664,9.70508 0.65368,0.78053 1.17318,1.8507 1.95117,2.68945 0.95599,1.46615 2.092,2.81148 2.86133,4.31055 0.71898,0.68139 0.92948,1.93782 1.8086,2.50586 1.47862,2.53924 2.88844,5.13659 4.43165,7.64453 0.4423,0.66655 0.44376,1.75616 1.30273,2.16016 0.0999,1.24769 1.2581,1.96474 1.35937,3.21093 0.96114,0.76365 0.9015,2.18899 1.80273,3.11133 0.64862,1.1842 0.8332,2.54855 1.74024,3.55664 -0.19136,1.34057 1.35663,1.78942 1.22265,3.0625 0.59843,0.92942 1.0714,1.79929 1.38672,2.8711 0.88647,1.40898 0.87611,3.20016 1.85742,4.61523 0.46618,1.32664 0.84279,2.75267 1.52344,3.90234 -0.21992,1.16436 0.46878,2.13874 1.05469,2.93946 -0.13795,1.61997 1.33885,2.6899 1.1914,4.31054 0.52652,1.11252 1.1026,2.12383 1.11719,3.41016 0.80686,1.45698 0.64582,3.1082 1.28125,4.56836 0.61799,1.40309 0.58114,3.15785 1.29102,4.56641 0.0258,1.55916 -0.31875,4.22902 2.10351,3.62109 1.67515,-0.40252 1.17238,2.00119 1.67774,2.98242 2.13721,10.71409 3.7337,21.75343 3.44922,32.76953 0.20051,13.64651 -2.20733,27.32134 -6.27344,40.32422 -0.57534,0.8053 -0.92407,1.71391 -1.05664,2.67969 -0.82599,1.55201 -0.73103,3.41257 -1.54492,4.96094 -0.10408,1.99459 -0.99437,3.9184 -1.38477,5.8789 -0.89575,1.25391 -0.64506,2.89163 -1.625,4.09961 -0.0757,1.31042 -0.61878,2.37164 -1.16211,3.52149 0.15729,1.53638 -1.3453,2.53242 -1.20703,4.03125 -0.9075,1.02053 -0.8323,2.57969 -1.58008,3.75781 -0.17333,1.16727 -1.43134,1.7859 -1.24609,3.06445 -0.57688,0.87323 -0.81897,2.01775 -1.16992,2.89453 -1.04133,0.6235 -0.54734,2.05486 -1.57032,2.64844 -0.26169,1.24674 -1.07968,2.15664 -1.38867,3.40039 -0.93482,0.70176 -0.61435,2.07019 -1.54883,2.83203 -0.13281,1.16115 -1.32269,1.85909 -1.37695,3.01758 -1.08178,0.62401 -0.80143,2.03212 -1.7793,2.76758 -1.35415,2.54741 -2.95022,4.95913 -4.30273,7.51367 -0.95749,0.60877 -0.92106,1.89625 -1.81641,2.54883 -1.34094,1.69124 -2.36071,3.88911 -3.84765,5.56055 -0.27288,0.8641 -1.22404,1.34838 -1.50781,2.32226 -2.45684,3.18622 -4.91341,6.39704 -7.57813,9.41016 -1.3718,2.43234 -4.02195,4.0401 -5.22852,6.54883 0.43059,2.01464 3.21238,1.09755 4.69142,1.41015 16.45053,0.20983 32.90392,0.0658 49.35547,0.10938 1.91979,-1.10406 2.58908,-3.67491 3.91992,-5.4336 4.40616,-7.81393 8.90426,-15.65103 12.27734,-23.97461 0.0787,-1.27553 1.29964,-2.09174 1.25585,-3.43554 0.97407,-0.9292 0.83026,-2.31212 1.65821,-3.3125 0.22679,-1.10217 1.2394,-1.79021 1.14062,-3.0293 0.87217,-1.20656 0.79907,-2.74247 1.77736,-3.86328 0.11786,-1.144 0.51447,-2.0714 1.14062,-3.01172 0.0842,-1.85703 2.00412,-2.85668 2.41992,-4.64648 4.02704,-9.982 6.43115,-20.54932 8.59179,-31.06641 0.7348,-1.53458 -1.26589,-2.58172 -0.48242,-4.01367 0.974,-2.32509 0.0626,-5.12198 1.39844,-7.28516 0.34785,-3.0675 -0.10404,-6.2494 1.06836,-9.18164 1.06992,-6.22699 1.34102,-12.6413 1.75,-18.98047 0.0819,-0.99872 0.94985,-1.95201 0.0937,-2.86523 -0.7405,-5.77229 -0.062,-11.73552 -1.11915,-17.47656 -1.25709,-1.46521 -0.0418,-3.9151 -1.35156,-5.51954 -0.60226,-2.94515 0.19023,-6.12719 -1.11133,-8.9414 -0.27791,-2.21481 -0.13347,-4.51546 -1.20508,-6.54688 -1.45484,-7.28194 -2.96516,-14.71517 -5.39062,-21.82226 -1.78194,-5.60104 -3.8785,-11.12788 -4.84961,-16.89844 -0.89846,-1.21101 -0.62858,-2.89246 -1.74609,-3.97852 -0.13377,-1.50932 -1.20472,-2.68017 -1.32618,-4.18945 -0.83745,-0.68862 -0.76019,-1.97294 -1.51757,-2.71094 -0.047,-1.36649 -1.31486,-2.17411 -1.30664,-3.56445 -0.84118,-0.69758 -0.65143,-1.85807 -1.42969,-2.54101 -0.64551,-0.43734 -1.60106,0.23868 -1.57813,-0.92188 -3.7504,-8.51645 -8.16073,-16.85372 -13.48437,-24.44727 -1.22728,-2.23354 -3.03347,-4.36011 -3.42774,-6.86328 -1.0235,-0.76461 -0.94109,-2.15169 -2.07031,-2.79882 -1.92056,-2.64278 -3.87786,-5.21691 -5.76758,-7.84571 -1.51459,-1.33041 -2.50287,-3.16573 -3.64453,-4.70898 -0.6407,-0.38494 -1.05305,-1.51456 -2.09179,-1.13281 -3.37496,-3.77246 -6.57632,-7.72893 -10.11524,-11.36719 -0.9606,-0.70832 -1.0353,-1.906985 -1.78125,-2.666018 -2.26764,-0.19565 -3.60766,-2.636048 -5.38672,-3.871093 -3.3562,-3.095733 -6.98704,-5.939739 -9.7832,-9.527344 -4.73945,-3.959641 -9.52059,-7.98934 -14.82813,-11.160156 -5.19064,-3.241305 -10.30536,-6.674029 -15.81836,-9.390625 -5.40558,-3.009773 -11.27267,-5.254751 -16.50586,-8.519532 -2.04122,-2.234521 -5.33443,-2.879198 -7.97656,-4.224609 -3.82675,-1.563753 -7.77589,-3.032665 -11.49023,-4.652344 -1.01382,-0.219885 -2.17326,-0.644002 -3.17577,-1.037109 -4.16206,-1.334568 -8.51066,-2.40619 -12.64063,-3.900391 -3.22773,-0.715841 -6.40281,-1.764796 -9.72461,-2.097656 -10.08117,-1.907356 -20.18589,-4.395578 -30.49219,-4.6875 -1.04959,0.08201 -1.70474,0.98421 -2.81445,0.435547 -3.87153,-0.500801 -7.75702,-0.863107 -11.66602,-0.773438 z" />
      <path
         style="opacity:1;fill:#aa4400;stroke:#aa4400;stroke-width:0.351648"
         d="m 250.4533,113.46635 c -1.55026,-0.0864 -3.18106,0.10083 -4.40522,0.95467 -3.30856,0.44029 -7.07977,-0.59139 -10.1566,0.93063 -2.48993,0.13394 -4.95598,0.36845 -7.33448,1.09272 -2.01975,0.18307 -3.7944,1.12517 -5.85302,1.00618 -1.24564,0.37892 -1.96664,1.63165 -3.29139,2.02575 -20.52731,11.90335 -41.10242,23.732 -61.55133,35.76614 -1.41761,0.49273 -1.30766,2.2225 -0.0748,2.90177 17.47399,17.70263 35.02981,35.32997 52.78156,52.75208 1.54044,0.63975 2.42962,-1.25931 3.71635,-1.70467 0.30092,-0.67845 1.06233,-1.14725 1.50962,-1.60852 1.28286,-0.0163 1.55698,-1.34992 2.61263,-1.75137 1.30765,-1.19289 3.09557,-1.95883 4.46841,-3.15796 1.1656,-0.0297 1.49999,-1.40236 2.7294,-1.21567 0.74252,-0.49636 1.08345,-1.09764 2.0776,-1.05219 0.77814,-0.3623 0.938,-1.19635 1.93682,-1.09753 1.17435,-1.00563 2.81444,-1.43451 4.30357,-1.92033 1.05318,-0.3402 1.92597,-0.85423 3.08105,-0.91827 1.49816,-1.21717 3.66658,-0.48377 5.16208,-1.71772 1.5348,-0.30946 3.42475,0.10936 4.60096,-1.10233 3.32613,-0.41158 6.89861,0.3074 10.17377,-0.42445 0.66198,-3.75554 0.0765,-7.75297 0.26168,-11.60095 -0.11915,-22.21583 0.0798,-44.44687 -0.34616,-66.65318 -0.66427,-2.35458 -3.86634,-1.207 -5.61058,-1.50813 -0.26396,0.001 -0.52793,0.002 -0.79189,0.003 z"
         id="path8950" />
      <path
         style="opacity:1;fill:#aa4400;stroke:#aa4400;stroke-width:0.351648"
         d="m 156.16484,156.41552 c -3.10404,0.9387 -5.36616,3.6273 -7.52404,5.93613 -1.97298,2.99929 -4.71566,5.36035 -6.61401,8.40247 -0.77689,0.75414 -1.34289,1.72627 -1.78984,2.6353 -0.65551,0.93743 -1.73095,1.56744 -2.02747,2.77816 -0.81221,0.56126 -0.88363,1.52578 -1.67651,2.12844 -0.22902,1.5939 -1.86955,2.54194 -2.03778,4.11744 -0.98457,0.65552 -1.0515,1.93162 -1.93132,2.64217 -0.25491,0.8044 -1.27128,1.36605 -1.22252,2.35165 -1.43934,0.64151 -0.60658,2.5053 -1.7864,3.39904 -0.5066,1.64328 -1.9183,2.7943 -2.14218,4.47939 -0.9673,0.77565 -0.5531,2.20004 -1.61607,2.82143 -0.32269,1.0171 -0.60193,1.93712 -1.23283,2.81731 -0.045,1.03394 -0.4374,1.68763 -1.04121,2.45948 -0.10803,1.48382 -0.95014,2.66329 -1.22115,4.13874 -1.10901,0.92736 -0.55158,2.65562 -1.50824,3.74313 -0.26047,1.1853 -0.31987,2.35197 -1.15247,3.28914 -0.54841,1.30728 -0.0908,2.94422 1.01305,3.71223 0.55704,12.51682 -0.003,25.09014 0.54464,37.59478 0.94781,1.93694 3.81927,0.53828 5.57074,0.96223 21.91941,0 43.83883,0 65.75824,0 1.90871,-0.72272 0.62656,-3.40697 1,-4.97665 -0.15649,-1.94559 0.15642,-3.81076 0.88462,-5.58105 0.35938,-1.51085 -0.28841,-3.2847 0.97046,-4.40796 0.53535,-1.41198 -0.22172,-3.13403 1.04946,-4.18407 0.35575,-1.1368 0.16499,-2.30122 0.9114,-3.28915 0.13843,-1.36818 1.0529,-2.30778 1.31387,-3.61538 0.91432,-0.75793 0.49234,-2.11342 1.5364,-2.71017 0.34894,-0.86171 0.33553,-1.6651 1.15522,-2.23283 0.0939,-1.18557 1.38756,-1.63179 1.40522,-2.88255 0.97706,-1.25791 1.67339,-2.65192 2.70261,-3.92583 0.86576,-1.34603 2.06119,-2.24419 2.76443,-3.67307 0.90272,-1.50522 3.21329,-2.53846 3.09709,-4.34891 -8.42221,-8.92148 -17.3403,-17.49381 -25.98926,-26.24519 -9.45042,-9.38291 -18.81737,-18.85442 -28.38531,-28.11607 -0.231,-0.1567 -0.50235,-0.2325 -0.77884,-0.21978 z m -27.67446,36.91827 c 0.0456,-0.0314 0.18299,-0.0309 0,0 z m 68.83379,39.55838 c -0.0702,0.0154 0.0319,-0.0121 0,0 z"
         id="path8989" />
      <path
         style="opacity:1;fill:#aa4400;stroke:#aa4400;stroke-width:0.351648"
         d="m 133.13736,256.12294 c -3.67129,0.13876 -7.42186,-0.22932 -11.0522,0.21429 -1.41812,1.55353 -0.54659,4.05972 -0.84779,5.98213 -0.0341,10.49883 0.23582,21.11762 0.21387,31.53778 -2.38075,-0.33938 -2.59827,3.18079 -1.02129,4.14904 0.0728,1.17932 0.34997,2.32793 0.97252,3.22115 -0.0122,1.44834 0.53588,2.74051 1.19643,3.95742 0.0262,1.22224 0.92271,1.98849 1.05907,3.18956 0.93648,1.00337 0.61394,2.65445 1.75618,3.47528 0.0557,1.5189 1.24577,2.45618 1.34134,3.95055 0.71667,0.64579 0.83955,1.38554 1.13874,2.28159 0.88457,0.69269 0.98282,1.90021 1.51099,2.82898 -0.085,1.11554 1.26723,1.31335 1.19437,2.43888 0.82527,0.81982 0.80401,2.21286 1.83722,2.73901 0.25881,1.04782 1.41153,1.28517 1.20536,2.47939 0.71713,0.9921 1.07013,2.16139 1.97115,3.06044 1.25355,2.00491 2.50909,4.03483 3.89492,5.89836 0.30692,0.96557 1.27857,1.21618 1.53503,2.22458 0.78738,0.68957 1.03396,1.78208 1.94231,2.48695 3.7293,4.96542 7.95309,9.64026 12.35482,13.95913 1.88874,0.2585 2.8724,-2.4069 4.34886,-3.3516 17.07607,-17.07549 34.1519,-34.15121 51.22764,-51.22703 0.75104,-1.9129 -1.94799,-3.1757 -2.76502,-4.7345 -3.74025,-4.06351 -6.30577,-9.00251 -8.84487,-13.85067 -0.44434,-1.61766 -1.58246,-2.91133 -1.86972,-4.6474 -0.95314,-2.71796 -1.87148,-5.43482 -2.37273,-8.26743 -0.93827,-1.72301 -0.26597,-4.03131 -1.41964,-5.69094 -0.37882,-2.61612 0.29437,-5.38472 -0.41964,-7.90315 -3.87032,-0.67282 -7.98439,-0.11207 -11.94777,-0.31393 -16.04669,-0.0388 -32.09338,-0.10399 -48.14015,-0.0879 z m 61.33036,13.26992 c 0.0559,0.0401 -0.10197,-0.0504 0,0 z m -58.82692,61.95329 c -0.0258,10e-4 -0.11869,-0.0507 0,0 z"
         id="path9028" />
      <path
         style="opacity:1;fill:#aa4400;stroke:#aa4400;stroke-width:0.351648"
         d="m 210.44437,301.02266 c -17.7912,17.89413 -35.84689,35.53885 -53.39423,53.66759 -1.19827,1.13996 -1.13632,3.5931 0.79464,3.81181 14.30571,7.76099 28.33832,16.03153 42.61242,23.84003 6.42606,3.54894 12.65458,7.51029 19.30173,10.63044 9.07612,2.70454 18.54387,4.13075 27.99176,4.69368 2.91121,-0.0294 5.96349,0.50854 8.78159,-0.125 0.6846,-3.75243 0.095,-7.75787 0.2919,-11.60714 0,-21.87546 0,-43.75092 0,-65.62638 -0.9633,-1.96138 -3.9957,-0.83272 -5.82002,-1.41599 -14.63807,-1.03932 -28.84283,-7.4406 -39.16693,-17.88895 -0.55755,-0.30104 -0.84986,-0.33506 -1.39286,0.0199 z"
         id="path9067" />
      <path
         style="opacity:1;fill:#aa4400;stroke:#aa4400;stroke-width:0.351648"
         d="m 300.56388,300.92239 c -1.09615,0.56477 -1.94643,1.47936 -3.1669,1.80838 -1.88583,1.23587 -2.94788,3.20956 -4.875,4.30838 -0.64257,0.70989 -1.86264,0.64939 -2.21223,1.60783 -0.83205,0.41074 -1.56414,0.74156 -2.37706,1.21428 -0.3705,0.95451 -1.89458,0.49797 -2.30906,1.58173 -1.46341,0.25415 -2.47514,1.45389 -3.95605,1.76717 -7.61366,3.56999 -16.0241,5.39341 -24.33035,5.96635 -1.87541,0.8179 -0.66866,3.44361 -1.02892,5.07621 -0.12754,24.23055 -0.0599,48.46157 -0.0775,72.69234 0.80788,1.98874 3.60182,0.48994 5.25567,0.83344 11.52058,-0.31442 22.95029,-2.16757 34.08147,-5.1029 0.98522,-0.55008 2.73558,0.38848 3.03786,-1.09799 14.51699,-8.78843 28.69736,-18.1366 43.17008,-27.00584 4.38116,-2.89162 9.10625,-5.43054 13.25566,-8.57784 0.69609,-1.63687 -1.79245,-2.58311 -2.52778,-3.82392 -16.94541,-17.12179 -33.86537,-34.28008 -51.11087,-51.09583 -0.27473,-0.0103 -0.55446,-0.19907 -0.82898,-0.15179 z m -4.41622,5.08997 c -0.006,0.002 -0.0285,-0.0144 0,0 z"
         id="path9106" />
      <path
         style="opacity:1;fill:#aa4400;stroke:#aa4400;stroke-width:0.351648"
         d="m 318.75618,256.53297 c -0.9235,2.85011 0.56866,6.29227 -1.10783,8.95741 -0.56118,1.64695 0.37509,3.70207 -1.01648,4.95811 -0.50765,1.35363 0.0764,2.99411 -1.02816,4.10714 -0.28394,1.22031 -0.39905,2.33539 -0.9636,3.45261 -0.0773,1.27341 -1.08259,2.35637 -1.1978,3.5886 -1.07625,0.58215 -0.61846,2.02333 -1.64286,2.61539 -0.2847,0.85277 -0.35592,1.41486 -1.11813,1.91414 -0.3291,0.86946 -0.26773,1.61275 -1.09272,2.16415 -0.22166,1.15812 -0.78409,2.03089 -1.71223,2.73627 -0.34638,0.81037 -0.22561,1.64364 -1.10302,2.12843 -0.58075,0.74309 -1.31221,1.3568 -2.02198,2.03091 -0.28607,0.87824 -0.55457,1.36205 -1.2809,1.9423 -0.51468,1.5773 -3.50044,2.74427 -2.14217,4.58173 15.23274,15.47602 30.60861,30.81557 45.98288,46.1525 2.65433,2.54769 5.18557,5.2456 7.97316,7.64283 1.10945,0.43326 1.67792,-0.80696 2.73626,-0.82898 1.46602,-0.68715 2.24788,-2.13135 3.43201,-3.05014 1.34892,-1.09998 2.07282,-3.00408 3.43132,-4.26923 2.25563,-2.34776 4.05793,-5.13224 6.1511,-7.66071 0.68672,-1.52022 2.22175,-2.44744 2.72459,-4.15248 0.59628,-0.69684 1.23173,-1.22279 1.77541,-1.97802 -0.0309,-1.62767 1.81364,-2.43463 1.96978,-3.97939 0.97351,-0.67728 1.08892,-1.92821 1.94986,-2.66484 0.0985,-0.90139 1.12166,-1.43343 1.20399,-2.32898 1.32051,-0.57286 0.71194,-2.21336 1.59546,-3.09684 -0.14327,-1.25078 1.36699,-1.72334 1.19643,-3.04396 1.18173,-0.57595 0.68183,-2.13532 1.73146,-2.78914 0.48739,-0.89611 0.0883,-2.02917 1.12156,-2.5886 0.17378,-1.30752 1.44999,-2.11403 1.37637,-3.5158 1.43908,-0.824 0.63781,-2.74571 1.62569,-3.85234 0.14973,-1.36257 1.42842,-2.34898 1.20673,-3.85233 0.70421,-1.0609 1.01056,-2.33584 1.13805,-3.56319 0.93009,-1.31929 1.49935,-3.55512 0.45536,-4.93956 -0.9749,-0.33063 -2.00306,-0.31294 -1.63187,-1.65865 0.0694,-11.58244 0.73818,-23.22438 0.64758,-34.76524 -1.28243,-1.49544 -3.96398,-0.32535 -5.79387,-0.6963 -21.95169,0 -43.90339,0 -65.85508,0 -0.23878,0.10073 -0.47757,0.20146 -0.71635,0.3022 z"
         id="path9145" />
      <path
         style="opacity:1;fill:#aa4400;stroke:#aa4400;stroke-width:0.351648"
         d="m 357.58516,157.24725 c -1.13264,0.8323 -2.60751,-0.10359 -3.71771,0.84684 -7.49496,6.47752 -14.1764,13.85239 -21.2823,20.75015 -10.58319,10.60494 -21.16705,21.20922 -31.75067,31.81373 -0.8795,1.97283 2.05563,2.86029 2.77404,4.31868 0.81847,0.47838 0.81855,1.19011 1.1511,1.98489 1.94508,1.62226 3.04064,4.00773 4.57417,5.96016 0.0583,1.13932 1.39417,1.46682 1.20811,2.6827 0.49164,0.75884 1.16168,1.12033 1.38805,2.06799 0.86329,0.78758 0.52782,2.29125 1.62912,2.90385 0.15335,1.50929 1.23335,2.70062 1.23008,4.25549 0.93826,1.05196 0.14296,2.92289 1.51717,3.75962 0.0287,1.10789 0.018,2.51234 1.06113,3.125 0.0976,2.0625 -0.1979,4.33758 0.97664,6.11195 0.40648,3.01348 -0.28547,6.17995 0.43064,9.09821 3.75519,0.6631 7.75253,0.0802 11.60026,0.26712 19.75428,-0.13799 39.5192,0.18542 59.26649,-0.37632 2.3665,0.0861 1.6222,-2.83655 1.76649,-4.34204 0.18075,-12.47298 0.56047,-24.96619 0.97046,-37.4162 -0.44084,-1.02958 -1.02552,-1.91448 -1.19574,-3.05632 -1.26052,-1.48092 -0.43289,-3.72024 -1.78022,-5.23695 -0.94771,-1.35161 -0.27699,-3.51856 -1.76648,-4.40248 0.20221,-1.43296 -1.51018,-1.9392 -1.12431,-3.38118 -0.16353,-1.08167 -1.27304,-1.51169 -1.16965,-2.67582 -0.60052,-0.70505 -1.05578,-1.1757 -1.24313,-2.14492 -0.82302,-0.71794 -0.70548,-1.91809 -1.41415,-2.6511 -0.33628,-1.14904 -1.21225,-2.01301 -1.20535,-3.27678 -0.52291,-0.706 -1.08659,-1.1048 -1.36333,-1.98901 -0.70382,-0.61047 -1.15471,-1.50988 -1.625,-2.3077 -0.13878,-1.38201 -1.83513,-1.71778 -1.91415,-3.11882 -0.68356,-0.85871 -0.84583,-1.86767 -1.30151,-2.81524 -0.9069,-0.67055 -1.65688,-1.65952 -1.87774,-2.81319 -0.74875,-0.94527 -1.76725,-1.56911 -2.12363,-2.80151 -1.11508,-1.17124 -2.47302,-2.2609 -3.00275,-3.875 -1.50758,-1.62051 -2.97719,-3.46411 -4.43887,-5.20536 -1.05306,-0.75086 -1.14188,-2.26314 -2.30426,-2.75549 -0.71657,-1.12982 -1.90429,-1.70349 -2.61951,-2.83585 -0.36111,-0.3145 -0.84249,-0.49739 -1.32349,-0.4691 z m -52.09409,60.17033 c -0.0273,0.0146 -0.20126,-0.073 0,0 z"
         id="path9184" />
      <path
         style="opacity:1;fill:#aa4400;stroke:#aa4400;stroke-width:0.351648"
         d="m 357.33379,354.09066 c -5.86112,3.12083 -11.18918,7.15559 -16.91146,10.52506 -14.32504,8.99556 -28.704,17.96668 -42.9759,27.01203 -2.32638,0.59862 -5.32193,1.1149 -6.54396,3.40796 0.26426,2.3223 2.39148,4.07499 3.29268,6.19717 5.55071,8.98213 10.70511,18.25036 16.61186,26.99034 2.05286,0.44128 4.03306,-1.09381 6.02577,-1.51525 22.44286,-7.7592 42.65038,-21.20826 59.41615,-37.92931 2.18561,-1.20881 2.38741,-3.31668 0.58395,-5.00433 -6.06417,-9.77429 -12.12701,-19.54948 -18.19552,-29.32103 -0.41056,-0.38593 -0.74655,-0.56049 -1.30357,-0.36264 z"
         id="path9223" />
      <path
         style="opacity:1;fill:#aa4400;stroke:#aa4400;stroke-width:0.351648"
         d="m 154.65316,355.11332 c -2.27527,0.92834 -3.03304,3.75116 -4.49382,5.55426 -5.47165,8.85554 -10.84661,17.77017 -16.27472,26.65248 -0.26003,1.95782 2.34577,2.82558 3.41414,4.23214 4.33047,3.70373 8.71097,7.48298 13.19094,10.91758 10.73067,7.69924 22.35808,14.1107 34.62843,19.00343 3.85942,1.67244 7.81123,3.03439 11.82349,4.26443 2.35942,0.4572 4.83834,2.53054 7.17171,1.12019 6.37329,-10.77388 12.74707,-21.54731 19.12705,-32.31731 0.40302,-2.21531 -2.81706,-1.64194 -4.0831,-2.66964 -15.8038,-8.30874 -31.15677,-17.44894 -46.78836,-26.07821 -5.04254,-3.04898 -10.52688,-5.43085 -15.32496,-8.84555 -0.35982,-0.95442 -1.30965,-1.89306 -2.3908,-1.8338 z"
         id="path9262" />
      <path
         style="opacity:1;fill:#aa4400;stroke:#aa4400;stroke-width:0.351648"
         d="m 79.741758,216.35096 c -2.570895,8.03642 -3.856419,16.49443 -4.942994,24.8647 -1.110437,12.99246 -0.681019,26.14355 1.857651,38.95378 0.989781,4.94446 1.564309,10.06571 3.202788,14.82919 2.050834,1.35941 4.843839,0.52295 7.177832,0.82654 10.824987,-0.0625 21.679325,0.30263 32.486315,-0.30663 0.86083,-1.00715 3.09994,-1.17354 2.69579,-2.93538 -0.0181,-11.61036 -0.58779,-23.29854 -0.0831,-34.86407 0.0619,-2.94669 -0.40288,-5.96259 -0.32062,-8.94037 -0.37487,-10.21471 -0.003,-20.46859 -0.79271,-30.6599 -0.51096,-2.2205 -3.44969,-1.39511 -5.0934,-1.69712 -11.8208,-0.26663 -23.646245,-0.24131 -35.469095,-0.36744 -0.239469,0.0989 -0.478938,0.1978 -0.718407,0.2967 z m 40.604402,78.39423 c -0.0338,0.0922 0.0454,-0.1728 0,0 z"
         id="path9301" />
      <path
         style="opacity:1;fill:#aa4400;stroke:#aa4400;stroke-width:0.351648"
         d="m 393.18681,215.43956 c -2.04469,0.6921 -1.24124,3.59126 -1.62257,5.23726 -0.77901,22.83496 -1.23663,45.68304 -1.67737,68.52716 0.1371,1.62088 -0.57777,4.2544 1.58772,4.72734 2.37215,1.53144 5.51921,0.81891 8.19711,1.25412 10.1265,0.41842 20.27446,1.07183 30.39286,1.24657 2.34858,-0.85941 2.1544,-4.05989 3.04739,-5.9897 6.55332,-22.57914 6.39504,-46.70759 1.46729,-69.58717 -0.0407,-1.6063 -0.72775,-3.2473 -2.61015,-2.91901 -1.04929,-0.58501 -2.03221,-1.37301 -3.36794,-1.24322 -11.79066,-0.67554 -23.61142,-0.85862 -35.41434,-1.25335 z"
         id="path9340" />
      <path
         style="opacity:1;fill:#aa4400;stroke:#aa4400;stroke-width:1.40659"
         d="m 386.12638,379.0522 c -20.31984,20.33817 -43.75153,38.80074 -71.48352,47.59615 -28.69058,7.11389 -58.62726,10.83909 -87.93866,5.58995 -35.70996,-5.45298 -70.17079,-21.49964 -95.55035,-47.46083 -10.97896,-9.30744 -26.70779,-3.74505 -39.703301,-5.29395 -5.237002,1.24116 -21.252317,-3.93009 -15.280219,5.93956 4.563925,6.77509 8.48311,13.89629 13.953297,19.96154 20.679733,18.65111 41.329353,38.21518 67.252983,49.45973 47.46818,23.31723 103.04784,30.00729 154.30554,16.21664 31.25755,-7.9999 60.28741,-23.51062 85.15337,-43.93682 11.24188,-3.81588 17.94112,-15.1739 25.74279,-23.65019 5.74691,-7.41448 12.11684,-14.6841 16.94642,-22.58662 -17.17375,-1.85041 -35.85258,-1.57999 -53.39835,-1.83516 z"
         id="path9379" />
    </g>
  </g>
</svg>
