<?xml version="1.0" encoding="UTF-8" standalone="no"?>
<!-- Created with Inkscape (http://www.inkscape.org/) -->

<svg
   version="1.1"
   id="svg2"
   width="527.89191"
   height="97.774277"
   viewBox="0 0 527.89191 97.774277"
   sodipodi:docname="gear-bar.svg"
   inkscape:version="1.1 (c68e22c387, 2021-05-23)"
   inkscape:export-filename="D:\projects\portfolio\portfolio\src\assets\ggbar.png"
   inkscape:export-xdpi="96"
   inkscape:export-ydpi="96"
   xmlns:inkscape="http://www.inkscape.org/namespaces/inkscape"
   xmlns:sodipodi="http://sodipodi.sourceforge.net/DTD/sodipodi-0.dtd"
   xmlns:xlink="http://www.w3.org/1999/xlink"
   xmlns="http://www.w3.org/2000/svg"
   xmlns:svg="http://www.w3.org/2000/svg">
  <defs
     id="defs6">
    <linearGradient
       inkscape:collect="always"
       id="linearGradient931">
      <stop
         style="stop-color:#d4aa00;stop-opacity:1;"
         offset="0"
         id="stop927" />
      <stop
         style="stop-color:#d4aa00;stop-opacity:0;"
         offset="1"
         id="stop929" />
    </linearGradient>
    <linearGradient
       inkscape:collect="always"
       xlink:href="#linearGradient931"
       id="linearGradient933"
       x1="295.63312"
       y1="30.389711"
       x2="295.63312"
       y2="74.152626"
       gradientUnits="userSpaceOnUse"
       gradientTransform="translate(1.7415344,0.9826858)" />
  </defs>
  <sodipodi:namedview
     id="namedview4"
     pagecolor="#ffffff"
     bordercolor="#666666"
     borderopacity="1.0"
     inkscape:pageshadow="2"
     inkscape:pageopacity="0.0"
     inkscape:pagecheckerboard="0"
     showgrid="false"
     showguides="true"
     inkscape:guide-bbox="true"
     inkscape:object-paths="true"
     inkscape:snap-nodes="false"
     inkscape:zoom="0.71093753"
     inkscape:cx="162.46153"
     inkscape:cy="-149.80219"
     inkscape:window-width="1920"
     inkscape:window-height="1001"
     inkscape:window-x="-9"
     inkscape:window-y="-9"
     inkscape:window-maximized="1"
     inkscape:current-layer="g10170" />
  <g
     inkscape:groupmode="layer"
     inkscape:label="Image"
     id="g8"
     transform="translate(-1.7415343,-0.9826858)">
    <g
       id="g10170"
       transform="translate(-0.72800593,-0.0540562)">
      <g
         id="g1790"
         inkscape:export-filename="D:\projects\portfolio\portfolio\src\assets\g1790.png"
         inkscape:export-xdpi="96"
         inkscape:export-ydpi="96">
        <g
           id="g29114"
           transform="translate(19.892235,-416.24501)">
          <g
             id="g28919"
             transform="translate(-15.913789,-12.929948)">
            <rect
               style="opacity:1;fill:#aa4400;fill-opacity:1;stroke:#aa4400;stroke-width:0.972259;stroke-opacity:1"
               id="rect23651"
               width="525.76538"
               height="65.31012"
               x="-1.0227762"
               y="462.18973" />
            <path
               style="fill:#aa4400;stroke:#aa4400;stroke-width:1px;stroke-linecap:butt;stroke-linejoin:miter;stroke-opacity:1"
               d="m 19.837685,461.4167 5.098901,-28.48352 c 0,0 3.164835,-1.93407 5.098901,-1.93407 1.934066,0 20.747253,1.05495 20.747253,1.05495 0,0 2.98901,0.87912 2.98901,2.63736 0,1.75824 3.34066,28.13187 3.34066,28.13187 z"
               id="path28543" />
            <path
               style="fill:#aa4400;stroke:#aa4400;stroke-width:1px;stroke-linecap:butt;stroke-linejoin:miter;stroke-opacity:1"
               d="m 77.288737,462.3728 5.098901,-28.48352 c 0,0 3.164835,-1.93407 5.098901,-1.93407 1.934066,0 20.747251,1.05495 20.747251,1.05495 0,0 2.98901,0.87912 2.98901,2.63736 0,1.75824 3.34066,28.13187 3.34066,28.13187 z"
               id="path28543-0" />
            <path
               style="fill:#aa4400;stroke:#aa4400;stroke-width:1px;stroke-linecap:butt;stroke-linejoin:miter;stroke-opacity:1"
               d="m 137.18445,461.31785 5.0989,-28.48352 c 0,0 3.16483,-1.93407 5.0989,-1.93407 1.93406,0 20.74725,1.05495 20.74725,1.05495 0,0 2.98901,0.87912 2.98901,2.63736 0,1.75824 3.34066,28.13187 3.34066,28.13187 z"
               id="path28543-0-1" />
            <path
               style="fill:#aa4400;stroke:#aa4400;stroke-width:1px;stroke-linecap:butt;stroke-linejoin:miter;stroke-opacity:1"
               d="m 195.44656,462.1239 5.0989,-28.48352 c 0,0 3.16483,-1.93407 5.0989,-1.93407 1.93406,0 20.74725,1.05495 20.74725,1.05495 0,0 2.98901,0.87912 2.98901,2.63736 0,1.75824 3.34066,28.13187 3.34066,28.13187 z"
               id="path28543-0-1-3" />
            <path
               style="fill:#aa4400;stroke:#aa4400;stroke-width:1px;stroke-linecap:butt;stroke-linejoin:miter;stroke-opacity:1"
               d="m 254.62597,462.1239 5.0989,-28.48352 c 0,0 3.16483,-1.93407 5.0989,-1.93407 1.93406,0 20.74725,1.05495 20.74725,1.05495 0,0 2.98901,0.87912 2.98901,2.63736 0,1.75824 3.34066,28.13187 3.34066,28.13187 z"
               id="path28543-0-1-3-1" />
            <path
               style="fill:#aa4400;stroke:#aa4400;stroke-width:1px;stroke-linecap:butt;stroke-linejoin:miter;stroke-opacity:1"
               d="m 313.80536,461.6266 5.0989,-28.48352 c 0,0 3.16483,-1.93407 5.0989,-1.93407 1.93406,0 20.74725,1.05495 20.74725,1.05495 0,0 2.98901,0.87912 2.98901,2.63736 0,1.75824 3.34066,28.13187 3.34066,28.13187 z"
               id="path28543-0-1-3-1-7" />
            <path
               style="fill:#aa4400;stroke:#aa4400;stroke-width:1px;stroke-linecap:butt;stroke-linejoin:miter;stroke-opacity:1"
               d="m 371.99015,461.12929 5.0989,-28.48352 c 0,0 3.16483,-1.93407 5.0989,-1.93407 1.93406,0 20.74725,1.05495 20.74725,1.05495 0,0 2.98901,0.87912 2.98901,2.63736 0,1.75824 3.34066,28.13187 3.34066,28.13187 z"
               id="path28543-0-1-3-1-7-9" />
            <path
               style="fill:#aa4400;stroke:#aa4400;stroke-width:1px;stroke-linecap:butt;stroke-linejoin:miter;stroke-opacity:1"
               d="m 430.17493,461.62659 5.0989,-28.48352 c 0,0 3.16483,-1.93407 5.0989,-1.93407 1.93406,0 20.74725,1.05495 20.74725,1.05495 0,0 2.98901,0.87912 2.98901,2.63736 0,1.75824 3.34066,28.13187 3.34066,28.13187 z"
               id="path28543-0-1-3-1-7-9-5" />
            <path
               style="fill:#aa4400;stroke:#aa4400;stroke-width:1px;stroke-linecap:butt;stroke-linejoin:miter;stroke-opacity:1"
               d="m 487.36511,462.12391 5.0989,-28.48352 c 0,0 3.16483,-1.93407 5.0989,-1.93407 1.93406,0 20.74725,1.05495 20.74725,1.05495 0,0 2.98901,0.87912 2.98901,2.63736 0,1.75824 3.34066,28.13187 3.34066,28.13187 z"
               id="path28543-0-1-3-1-7-9-5-8" />
          </g>
        </g>
        <rect
           style="opacity:0.709343;fill:url(#linearGradient933);stroke:#aa4400"
           id="rect895"
           width="526.1496"
           height="40.779079"
           x="3.7118409"
           y="32.876244" />
      </g>
    </g>
  </g>
</svg>
