<?xml version="1.0" encoding="UTF-8" standalone="no"?>
<!-- Created with Inkscape (http://www.inkscape.org/) -->

<svg
   version="1.1"
   id="svg2"
   width="419.87207"
   height="406.82736"
   viewBox="0 0 419.87207 406.82736"
   sodipodi:docname="github.svg"
   inkscape:version="1.1 (c68e22c387, 2021-05-23)"
   inkscape:export-filename="D:\projects\portfolio\portfolio\src\assets\github2.png"
   inkscape:export-xdpi="96"
   inkscape:export-ydpi="96"
   xmlns:inkscape="http://www.inkscape.org/namespaces/inkscape"
   xmlns:sodipodi="http://sodipodi.sourceforge.net/DTD/sodipodi-0.dtd"
   xmlns="http://www.w3.org/2000/svg"
   xmlns:svg="http://www.w3.org/2000/svg">
  <defs
     id="defs6" />
  <sodipodi:namedview
     id="namedview4"
     pagecolor="#ffffff"
     bordercolor="#666666"
     borderopacity="1.0"
     inkscape:pageshadow="2"
     inkscape:pageopacity="0.0"
     inkscape:pagecheckerboard="0"
     showgrid="false"
     inkscape:zoom="0.91923882"
     inkscape:cx="282.29878"
     inkscape:cy="312.75877"
     inkscape:window-width="1920"
     inkscape:window-height="1001"
     inkscape:window-x="-9"
     inkscape:window-y="-9"
     inkscape:window-maximized="1"
     inkscape:current-layer="g8" />
  <g
     inkscape:groupmode="layer"
     inkscape:label="Image"
     id="g8"
     transform="translate(-1.7255881,-2.6749016)">
    <path
       style="fill:#161414"
       d="M 135.15696,405.78755 C 70.456921,379.81284 23.716917,326.94057 7.2419372,261.09011 c -4.34151,-17.35303 -5.44261,-27.23793 -5.51321,-49.49387 -0.0768,-24.19228 1.2285,-34.64161 6.91734,-55.37763 C 24.991267,96.639864 68.015001,46.567654 124.59008,21.279796 c 103.35101,-46.19572 224.92014,-3.52843 275.19476,96.585504 7.25012,14.43746 10.9075,23.86249 14.883,38.35331 5.66497,20.64898 6.98295,31.18373 6.92819,55.37763 -0.0504,22.27233 -1.12713,31.91935 -5.52406,49.49387 -16.54594,66.1341 -64.98693,120.61025 -128.9552,145.02147 -10.95945,4.18228 -15.7334,4.44292 -19.65405,1.07304 l -2.80576,-2.41161 -0.57375,-37.83839 c -0.49376,-32.56341 -0.82281,-38.60512 -2.36031,-43.33838 -2.51126,-7.73102 -5.28508,-12.97745 -8.8389,-16.71801 -3.53529,-3.72105 -3.70987,-3.60295 7.77296,-5.2582 23.44771,-3.38 44.03341,-12.10782 56.90074,-24.12448 16.95633,-15.83534 24.94152,-34.0611 27.61467,-63.02893 2.42544,-26.28359 -2.53683,-46.33124 -15.77321,-63.72396 l -4.83527,-6.35358 1.86916,-7.14642 c 2.56489,-9.80645 1.94248,-29.0008 -1.26938,-39.146416 -1.21882,-3.85 -2.67404,-7.5625 -3.23382,-8.25 -3.88989,-4.77742 -29.30519,3.42561 -50.52618,16.307816 l -7.2533,4.40311 -8.2467,-1.91568 c -15.78666,-3.66719 -24.05661,-4.5052 -44.24671,-4.48364 -20.1863,0.0216 -28.82926,0.90152 -44.40321,4.52081 l -8.40322,1.95285 -6.09678,-3.95307 C 137.61308,96.861464 116.03232,88.596244 105.5405,88.596244 h -4.29653 l -2.663569,8.25 c -3.66909,11.364416 -4.44835,29.886736 -1.69953,40.396416 l 1.86916,7.14642 -4.83527,6.35358 c -13.20069,17.34583 -18.23914,37.52131 -15.82137,63.35358 4.78867,51.16378 30.125119,78.36066 81.063569,87.01599 5.225,0.88782 10.52082,1.82058 11.7685,2.07281 l 2.2685,0.45859 -2.58908,2.7263 c -3.65414,3.84783 -7.98441,12.72582 -9.47557,19.42698 -1.14912,5.16406 -1.60759,5.83538 -4.87044,7.13162 -11.74179,4.66471 -27.65761,4.85581 -37.27706,0.44759 -7.21929,-3.30832 -13.82409,-9.39689 -19.829749,-18.27988 -6.03716,-8.92957 -13.57652,-15.9612 -20.52406,-19.14189 -9.50696,-4.35243 -21.47104,-4.11785 -21.47104,0.42097 0,2.08651 4.29133,6.3621 11.34272,11.30113 6.4722,4.53334 12.887,13.25409 18.79675,25.55365 7.08269,14.74073 14.655899,21.736 28.751969,26.55777 5.5115,1.8853 8.76664,2.26453 19.60856,2.28447 7.15,0.0131 15.3625,-0.3291 18.25,-0.76054 l 5.25,-0.78445 v 21.47868 c 0,20.99467 -0.052,21.53917 -2.30884,24.16287 -3.7878,4.40358 -10.04651,4.29355 -21.69116,-0.38135 z m -0.98943,-60.67858 c -2.03848,-2.45622 -0.4483,-4.51273 3.48943,-4.51273 4.23853,0 5.85905,2.53307 2.97135,4.64461 -2.42223,1.77118 -4.92376,1.72012 -6.46078,-0.13188 z m 16.23943,-1.17501 c -2.22906,-0.89945 -1.3862,-4.33544 1.31547,-5.36261 4.83437,-1.83803 8.87888,2.64635 4.50027,4.98971 -2.04338,1.09358 -3.75735,1.20348 -5.81574,0.3729 z m -33.19705,-1.77392 c -1.79895,-2.1676 -0.56812,-4.5638 2.34424,-4.5638 2.72731,0 5.89851,2.60236 5.32044,4.36607 -0.58778,1.79335 -6.21985,1.93864 -7.66468,0.19773 z m -13.85295,-7.7638 c -0.66,-0.66 -1.2,-2.235 -1.2,-3.5 0,-1.78096 0.55897,-2.3 2.47695,-2.3 2.66579,0 6.17411,4.13755 5.05023,5.95602 -0.87676,1.41862 -4.85053,1.32063 -6.32718,-0.15602 z M 93.196831,322.14428 c -1.59544,-1.92239 -0.94099,-4.9434 1.15848,-5.34772 1.90758,-0.36737 5.31392,4.16179 4.32883,5.7557 -0.93572,1.51402 -4.08662,1.27975 -5.48731,-0.40798 z m -7.55141,-10.93282 c -1.82362,-1.33347 -1.73163,-4.70207 0.14547,-5.327 1.39706,-0.46511 4.36607,2.37479 4.36607,4.17622 0,1.93829 -2.54631,2.58779 -4.51154,1.15078 z m -9.0289,-9.03442 c -1.59292,-1.17558 -1.72053,-1.68843 -0.68204,-2.741 1.48506,-1.50519 4.72248,-0.007 4.72248,2.18585 0,1.94251 -1.82144,2.19277 -4.04044,0.55515 z"
       id="path834" />
  </g>
</svg>
